<svg width="134" height="36" viewBox="0 0 134 36" fill="none" xmlns="http://www.w3.org/2000/svg">
<path d="M32.921 7.4625C34.6661 6.84957 36.3446 8.5279 35.7315 10.273L32.5381 19.3629C32.3163 19.9939 31.8196 20.4898 31.1885 20.7115L25.8731 22.5787L26.5108 22.7662C27.2322 22.9774 27.7967 23.5419 28.0079 24.2633L29.4395 29.1529C29.9289 30.8253 28.3756 32.3787 26.7032 31.8893L21.8135 30.4576C21.0921 30.2465 20.5276 29.6819 20.3165 28.9605L19.2012 25.15L18.086 28.9605C17.8748 29.6818 17.3111 30.2464 16.5899 30.4576L11.6993 31.8893C10.0269 32.3786 8.47449 30.8253 8.96392 29.1529L10.3956 24.2633C10.6067 23.5419 11.1703 22.9774 11.8917 22.7662L12.5723 22.566L7.29302 20.7115C6.66217 20.4897 6.16621 19.9937 5.94439 19.3629L2.75005 10.273C2.13713 8.52787 3.81639 6.84933 5.56158 7.4625L14.6504 10.6559C15.2816 10.8776 15.7783 11.3743 16.0001 12.0055L19.1934 21.0943C19.2111 21.1447 19.2264 21.1955 19.2403 21.2457C19.2542 21.1953 19.2704 21.1449 19.2881 21.0943L22.4815 12.0055C22.7033 11.3743 23.2 10.8777 23.8311 10.6559L32.921 7.4625ZM53.1954 8.96543C57.8909 8.96543 60.9697 11.7829 61.5176 16.3219H59.379C58.9615 12.8003 56.7953 10.7916 53.1954 10.7916C48.9175 10.7918 46.7268 13.9744 46.7266 18.4088C46.7266 22.8696 48.9174 26.0531 53.1954 26.0533C56.7953 26.0533 58.9615 24.0182 59.379 20.4967H61.5176C60.9697 25.0617 57.8909 27.8785 53.1954 27.8785C47.7956 27.8783 44.587 23.7826 44.587 18.4088C44.5872 13.0613 47.7957 8.96567 53.1954 8.96543ZM69.7598 14.3922C73.8816 14.3922 76.5684 17.3661 76.5684 21.1227C76.5683 24.9052 73.8815 27.8785 69.7598 27.8785C65.6122 27.8784 62.8996 24.9051 62.8995 21.1227C62.8995 17.3662 65.6121 14.3923 69.7598 14.3922ZM99.046 14.3922C102.698 14.3922 105.098 16.7135 105.098 20.7047V21.5396H94.8458C94.9762 23.9919 96.1507 26.1051 99.3594 26.1051C101.498 26.1049 102.933 25.0612 103.402 23.0787H105.542C105.046 25.0874 103.481 27.8783 99.3594 27.8785C94.7159 27.8785 92.7588 24.6959 92.7588 20.9654C92.759 16.7917 95.3678 14.3922 99.046 14.3922ZM123.085 14.3922C126.711 14.3922 128.876 16.7918 128.876 20.2613V25.7916H130.78V27.6178H128.485C127.494 27.6178 126.946 27.0703 126.946 26.1051V25.401L127.285 24.0445H126.659C126.164 26.027 124.781 27.8784 121.65 27.8785C117.894 27.8785 117.319 25.3747 117.319 24.0182C117.319 21.9573 118.546 20.548 121.572 20.235L126.737 19.7398C126.607 17.3659 125.329 16.192 123.085 16.192C121.207 16.192 119.459 17.0269 119.459 19.4791H117.372C117.372 16.7921 119.407 14.3922 123.085 14.3922ZM80.796 16.8961L80.4561 18.3834H81.0567C81.5784 16.0355 83.2217 14.3922 86.0391 14.3922C88.9608 14.3922 90.8651 16.0874 90.8653 19.6871V27.6178H88.752V19.9742C88.7519 17.2613 87.6822 16.2184 85.4649 16.2184C82.726 16.2185 80.7961 18.3832 80.796 21.8785V27.6178H78.6563V8.44394H80.796V16.8961ZM109.246 14.4176L116.446 14.6529V16.4791L109.585 16.2437V27.6178H107.446V16.192C107.446 14.9659 108.02 14.3655 109.246 14.4176ZM69.7598 16.2184C66.6817 16.2185 65.0381 18.4357 65.0381 21.1227C65.0383 23.8355 66.6818 26.0532 69.7598 26.0533C72.8119 26.0533 74.456 23.8356 74.4561 21.1227C74.4561 18.4357 72.812 16.2184 69.7598 16.2184ZM121.938 21.8268C120.294 21.9833 119.459 22.4791 119.459 23.7574C119.459 25.2442 120.398 26.0533 121.911 26.0533C124.859 26.0533 126.737 24.0176 126.737 21.3307L121.938 21.8268ZM99.046 16.192C96.4894 16.192 94.8458 17.8355 94.8458 19.9225H103.011C103.011 17.8355 101.629 16.192 99.046 16.192ZM18.9219 4.21933C19.05 3.95255 19.4295 3.95266 19.5577 4.21933L20.7794 6.76523L22.9864 7.8248C23.2531 7.95292 23.2532 8.33248 22.9864 8.46055L20.5596 9.62558L19.5577 11.7135C19.4296 11.9802 19.05 11.9802 18.9219 11.7135L17.919 9.62558L15.4922 8.46055C15.2257 8.33239 15.2257 7.95294 15.4922 7.8248L17.6993 6.76426L18.9219 4.21933Z" fill="url(#paint0_radial_2535_11295)"/>
<defs>
<radialGradient id="paint0_radial_2535_11295" cx="0" cy="0" r="1" gradientTransform="matrix(0.0276305 37.1155 -270.072 0.0135825 66.7008 0.23284)" gradientUnits="userSpaceOnUse">
<stop stop-color="#A8D5EB"/>
<stop offset="0.533654" stop-color="#607EC2"/>
<stop offset="1" stop-color="#222836"/>
</radialGradient>
</defs>
</svg>
