<svg width="317" height="302" viewBox="0 0 317 302" fill="none" xmlns="http://www.w3.org/2000/svg">
<path d="M247.664 297.61C268.213 297.61 284.872 293.854 284.872 289.22C284.872 284.586 268.213 280.83 247.664 280.83C227.115 280.83 210.457 284.586 210.457 289.22C210.457 293.854 227.115 297.61 247.664 297.61Z" fill="#263238" fill-opacity="0.1"/>
<path d="M218.975 99.5786C218.975 99.5786 213.941 102.657 213.998 104.008C214.054 105.359 212.12 129.996 211.9 133.074C211.68 136.153 208.75 142.51 208.523 145.396C208.295 148.283 209.02 151.177 209.867 152.506C210.713 153.836 213.82 158.088 213.82 158.088L222.174 145.183C222.379 142.365 222.422 139.538 222.302 136.715C222.174 130.565 218.975 99.5786 218.975 99.5786Z" fill="white" stroke="#263238" stroke-linecap="round" stroke-linejoin="round"/>
<path d="M251.12 38.5311C251.12 38.5311 242.233 37.9623 237.17 44.1268C232.108 50.2912 233.196 59.7193 233.16 62.6131C233.125 65.5069 224.528 73.9893 225.481 77.4449C226.434 80.9004 228.965 81.2914 228.155 84.1782C227.344 87.0649 222.054 88.7997 222.822 92.4615C223.59 96.1232 226.377 101.314 226.377 101.314L277.57 101.662C277.57 101.662 279.397 96.2725 277.449 92.2268C275.501 88.1812 272.735 86.8444 273.183 84.9176C273.631 82.9908 276.105 78.3692 275.153 74.9065C274.2 71.4439 270.887 70.484 270.538 64.3195C270.19 58.1551 269.28 47.9662 264.388 42.9891C259.496 38.012 251.12 38.5311 251.12 38.5311Z" fill="#263238" stroke="#263238" stroke-linecap="round" stroke-linejoin="round"/>
<path d="M235.377 276.088C233.805 279.117 231.897 281.96 229.689 284.563C226.419 288.225 223.248 290.152 223.354 292.079C223.461 294.005 230.599 294.382 234.375 293.031C238.15 291.68 240.895 288.986 241.656 288.765C242.416 288.545 244.542 288.765 244.592 286.063C244.642 283.362 244.23 275.668 244.23 275.668L235.377 276.088Z" fill="white" stroke="#263238" stroke-linecap="round" stroke-linejoin="round"/>
<path d="M234.36 293.031C238.143 291.68 240.88 288.985 241.641 288.765C242.402 288.544 244.527 288.765 244.577 286.063C244.577 284.641 244.499 281.797 244.399 279.472C243.84 280.521 243.012 281.403 242 282.027C240.988 282.652 239.829 282.997 238.64 283.027C238.64 283.027 238.569 281.676 236.507 279.372C235.178 277.865 233.834 279.052 233.052 280.083L232.419 281.036L232.369 281.128C231.548 282.339 230.651 283.496 229.681 284.591C226.411 288.253 223.24 290.18 223.346 292.107C223.453 294.033 230.584 294.382 234.36 293.031Z" fill="white" stroke="#263238" stroke-linecap="round" stroke-linejoin="round"/>
<path d="M261.721 276.073C263.632 279.113 265.848 281.951 268.334 284.541C271.996 288.196 275.373 290.116 275.444 292.043C275.515 293.969 268.448 294.353 264.523 293.009C260.598 291.666 257.569 288.971 256.794 288.779C256.019 288.587 253.9 288.779 253.566 286.091C253.232 283.404 252.812 275.696 252.812 275.696L261.721 276.073Z" fill="white" stroke="#263238" stroke-linecap="round" stroke-linejoin="round"/>
<path d="M264.549 293.01C260.632 291.666 257.596 288.971 256.821 288.779C256.046 288.587 253.927 288.779 253.593 286.092C253.415 284.67 253.216 281.826 253.066 279.494C253.724 280.536 254.627 281.402 255.697 282.014C256.767 282.626 257.97 282.967 259.202 283.006C259.202 283.006 259.131 281.655 260.93 279.344C262.103 277.844 263.575 279.024 264.485 280.055C264.72 280.368 264.962 280.681 265.196 281.008L265.26 281.1C266.216 282.309 267.237 283.465 268.318 284.563C271.979 288.218 275.357 290.137 275.428 292.064C275.499 293.991 268.474 294.354 264.549 293.01Z" fill="white" stroke="#263238" stroke-linecap="round" stroke-linejoin="round"/>
<path d="M219.914 174.462C219.914 174.462 221.101 214.499 222.68 222.392C224.258 230.284 231.305 275.519 231.305 275.519C233.458 276.43 235.778 276.885 238.116 276.855H245.816L246.527 243.168L246.79 194.271L250.651 277.04C250.651 277.04 261.259 277.417 262.404 277.225C263.549 277.033 264.502 276.841 264.502 276.841L271.32 224.475L275.224 189.635L275.437 175.778C275.437 175.778 242.844 174.647 233.374 173.879C223.903 173.111 220.006 172.919 220.006 172.919L219.914 174.462Z" fill="white" stroke="#263238" stroke-linecap="round" stroke-linejoin="round"/>
<path d="M263.923 245.151C263.837 245.82 263.752 246.438 263.652 247.007" stroke="#263238" stroke-linecap="round" stroke-linejoin="round"/>
<path d="M264.798 196.952C264.798 196.952 265.46 225.478 264.301 240.964" stroke="#263238" stroke-linecap="round" stroke-linejoin="round"/>
<path d="M229.852 194.663C229.852 194.663 230.669 213.533 231.48 217.763" stroke="#263238" stroke-linecap="round" stroke-linejoin="round"/>
<path d="M260.238 182.639V197.044C262.084 197.541 263.971 197.867 265.877 198.018C268.799 198.21 274.252 198.018 274.252 198.018L274.643 192.565L260.238 182.639Z" fill="#263238" stroke="#263238" stroke-linecap="round" stroke-linejoin="round"/>
<path d="M220.516 193.731C220.516 193.731 227.918 196.07 231.032 196.262C234.146 196.454 237.061 196.845 237.061 196.845L236.677 192.956L220.125 191.399L220.516 193.731Z" fill="#263238" stroke="#263238" stroke-linecap="round" stroke-linejoin="round"/>
<path d="M242.987 84.3557L237.178 90.9041L221.066 102.657L224.501 173.894C224.501 173.894 237.342 177.349 248.362 178.309C259.383 179.269 273.553 176.745 273.553 176.745L271.47 102.088C271.47 102.088 265.199 92.8452 261.985 90.3496C258.771 87.8539 257.3 85.5431 253.041 85.1592C248.782 84.7752 242.987 84.3557 242.987 84.3557Z" fill="white" stroke="#263238" stroke-linecap="round" stroke-linejoin="round"/>
<path d="M236.246 87.8611L218.976 99.6142L221.684 142.922L220.767 147.273L213.508 155.635L216.601 170.324L215.221 191.051C215.221 191.051 222.083 193.361 226.733 193.93C230.195 194.301 233.674 194.493 237.156 194.506L237.753 166.208C237.753 166.208 240.05 119.231 240.32 117.148C240.59 115.065 242.986 84.4412 242.986 84.4412L236.246 87.8611Z" fill="white" stroke="#263238" stroke-linecap="round" stroke-linejoin="round"/>
<path d="M236.522 89.6316L228.16 110.599L237.183 114.346L228.665 115.896L236.209 145.453" stroke="#263238" stroke-linecap="round" stroke-linejoin="round"/>
<path d="M241.535 78.7744C241.535 78.7744 244.536 98.7894 246.896 103.411C249.257 108.033 249.925 109.568 249.925 109.568C249.925 109.568 255.059 93.9688 256.09 91.658C257.121 89.3472 258.223 81.071 258.223 81.071C258.223 81.071 247.991 84.3488 241.535 78.7744Z" fill="white" stroke="#263238" stroke-linecap="round" stroke-linejoin="round"/>
<path d="M241.535 78.7744C241.535 78.7744 241.805 80.5946 242.246 83.2609C243.746 84.4056 247.721 87.2355 250.657 87.3848C252.897 87.4985 255.741 86.0481 257.633 84.8891C257.974 82.7916 258.208 81.071 258.208 81.071C258.208 81.071 247.991 84.3488 241.535 78.7744Z" fill="#263238" stroke="#263238" stroke-linecap="round" stroke-linejoin="round"/>
<path d="M237.463 64.938C237.463 64.938 235.415 62.0228 234.036 64.938C232.656 67.8531 236.169 72.169 237.15 72.7591C239.937 74.4158 239.198 71.3371 239.198 71.3371L237.463 64.938Z" fill="white" stroke="#263238" stroke-linecap="round" stroke-linejoin="round"/>
<path d="M262.894 66.1966C262.894 66.1966 264.622 63.1819 266.314 66.0259C268.006 68.87 264.956 73.3423 264.046 73.9751C261.444 75.7739 261.856 72.6881 261.856 72.6881L262.894 66.1966Z" fill="white" stroke="#263238" stroke-linecap="round" stroke-linejoin="round"/>
<path d="M236.98 62.364C236.98 62.364 244.403 60.6291 248.143 58.4179C250.434 57.0343 252.432 55.2155 254.023 53.064C254.023 53.064 257.237 59.136 260.067 61.5961C262.897 64.0562 263.487 64.1984 263.487 64.1984C263.487 64.1984 262.129 74.8281 260.593 78.5254C259.057 82.2226 254.045 85.8204 249.366 84.7823C246.707 84.1992 242.1 82.2795 240.763 79.0444C239.426 75.8093 236.98 62.364 236.98 62.364Z" fill="white" stroke="#263238" stroke-linecap="round" stroke-linejoin="round"/>
<path d="M255.919 70.5337C253.615 70.5906 245.901 70.6048 241.919 68.2015C240.323 67.2724 238.829 66.1786 237.461 64.938C237.603 65.649 237.774 66.5378 237.959 67.4621L238.826 68.0949L241.002 76.3142L239.985 76.5346C240.199 77.3748 240.458 78.2031 240.76 79.0161C242.097 82.2512 246.704 84.1709 249.363 84.7539C254.035 85.7849 259.033 82.2085 260.583 78.5183C260.217 77.8014 260.109 76.9805 260.277 76.1933C260.725 73.8683 261.28 69.7942 261.28 69.7942L262.865 68.3722C262.951 67.8531 263.022 67.3554 263.093 66.9004C261.173 68.23 257.576 70.491 255.919 70.5337Z" fill="white" stroke="#263238" stroke-linecap="round" stroke-linejoin="round"/>
<path d="M247.449 67.0997C247.449 67.0997 244.967 64.085 241.711 64.3623" stroke="#263238" stroke-linecap="round" stroke-linejoin="round"/>
<path d="M253.844 67.6968C254.635 66.8643 255.619 66.2385 256.709 65.8741C257.798 65.5097 258.96 65.4178 260.094 65.6064" stroke="#263238" stroke-linecap="round" stroke-linejoin="round"/>
<path d="M240.281 62.8549C240.281 62.8549 243.836 61.4329 246.986 62.1013" stroke="#263238" stroke-linecap="round" stroke-linejoin="round"/>
<path d="M254.137 62.8761C255.073 62.3976 256.134 62.2187 257.176 62.3637C258.218 62.5087 259.19 62.9705 259.96 63.6867" stroke="#263238" stroke-linecap="round" stroke-linejoin="round"/>
<path d="M245.062 66.1113C245.078 66.2206 245.072 66.3319 245.045 66.439C245.018 66.5461 244.97 66.6468 244.904 66.7353C244.838 66.8239 244.755 66.8985 244.66 66.9549C244.565 67.0113 244.46 67.0484 244.351 67.0641C244.128 67.039 243.924 66.9303 243.778 66.76C243.633 66.5897 243.558 66.3705 243.569 66.1469C243.551 66.0375 243.556 65.9257 243.583 65.8183C243.61 65.7108 243.658 65.6097 243.724 65.521C243.79 65.4323 243.873 65.3577 243.969 65.3015C244.064 65.2454 244.17 65.2089 244.28 65.1941C244.501 65.2207 244.705 65.3299 244.85 65.4998C244.995 65.6698 245.07 65.8881 245.062 66.1113Z" fill="#263238"/>
<path d="M257.939 67.0356C257.958 67.1452 257.955 67.2576 257.929 67.3659C257.903 67.4741 257.855 67.576 257.789 67.6652C257.722 67.7544 257.638 67.8291 257.542 67.8846C257.445 67.9402 257.338 67.9755 257.228 67.9884C257.006 67.965 256.802 67.8578 256.656 67.6886C256.511 67.5194 256.435 67.3011 256.446 67.0783C256.427 66.9686 256.43 66.8562 256.456 66.748C256.482 66.6397 256.529 66.5379 256.596 66.4487C256.663 66.3595 256.747 66.2848 256.843 66.2292C256.939 66.1737 257.046 66.1383 257.157 66.1255C257.379 66.1488 257.583 66.2561 257.729 66.4252C257.874 66.5944 257.949 66.8128 257.939 67.0356Z" fill="#263238"/>
<path d="M277.082 95.4976C277.082 95.4976 281.227 97.4173 282.77 100.475C284.313 103.532 296.649 136.658 296.592 139.161C296.535 141.664 292.454 144.55 288.629 144.941C284.804 145.332 279.229 138.4 278.397 137.248C277.566 136.096 277.416 122.616 277.416 122.616L277.082 95.4976Z" fill="white" stroke="#263238" stroke-linecap="round" stroke-linejoin="round"/>
<path d="M257.551 86.6526L259.57 152.876L260.281 194.648C264.153 195.6 268.119 196.113 272.105 196.177C275.43 196.247 278.736 195.657 281.832 194.442C281.832 194.442 280.623 168.455 280.41 164.217C280.197 159.979 278.789 151.895 278.789 151.895L277.111 95.4976C277.111 95.4976 261.49 88.1884 257.551 86.6526Z" fill="white" stroke="#263238" stroke-linecap="round" stroke-linejoin="round"/>
<path d="M261.982 90.3071L269.141 113.664L262.614 115.434L268.964 118.513L261.043 143.676" fill="white"/>
<path d="M261.982 90.3071L269.141 113.664L262.614 115.434L268.964 118.513L261.043 143.676" stroke="#263238" stroke-linecap="round" stroke-linejoin="round"/>
<path d="M266.974 111.673L258.094 154.22C258.094 154.22 264.166 156.14 268.603 156.353C273.039 156.567 282.282 156.538 282.282 156.538L291.526 116.878C291.526 116.878 273.331 115.136 266.974 111.673Z" fill="#263238" stroke="#263238" stroke-linecap="round" stroke-linejoin="round"/>
<path d="M270.066 151.326L270.358 138.03L277.404 139.516C277.404 139.516 272.747 149.776 270.066 151.326Z" fill="white" stroke="#263238" stroke-linecap="round" stroke-linejoin="round"/>
<path d="M275.465 133.224C275.465 133.224 273.588 130.536 272.984 129.953C272.379 129.37 269.393 127.649 268.817 127.649C268.241 127.649 265.148 127.458 264.551 127.458C263.954 127.458 263.278 128.808 263.89 129.384C264.501 129.96 266.627 130.152 266.627 130.152L268.085 132.285L261.508 131.709C261.508 131.709 260.413 132.868 260.662 133.842C260.848 134.502 261.086 135.147 261.373 135.769C261.348 137.183 261.421 138.596 261.593 140C261.849 141.159 263.015 141.543 264.615 142.503C266.215 143.462 271.569 142.887 271.569 142.887H274.043L275.465 133.224Z" fill="white" stroke="#263238" stroke-linecap="round" stroke-linejoin="round"/>
<path d="M291.496 134.561L274.432 132.264C274.432 132.264 273.102 143.242 271.759 146.897C270.415 150.551 270.066 151.326 270.066 151.326C270.066 151.326 287.948 150.928 292.165 150.544C296.381 150.16 298.749 147.65 298.564 144.188C298.379 140.725 296.267 137.255 296.267 137.255" fill="white"/>
<path d="M291.496 134.561L274.432 132.264C274.432 132.264 273.102 143.242 271.759 146.897C270.415 150.551 270.066 151.326 270.066 151.326C270.066 151.326 287.948 150.928 292.165 150.544C296.381 150.16 298.749 147.65 298.564 144.188C298.379 140.725 296.267 137.255 296.267 137.255" stroke="#263238" stroke-linecap="round" stroke-linejoin="round"/>
<path d="M220.338 146.548C220.338 146.548 224.32 149.044 225.315 149.819C226.311 150.594 226.396 155.592 227.029 156.552C227.662 157.512 226.915 158.095 225.763 158.095C224.611 158.095 222.869 154.44 222.869 154.44L222.798 153.089L214.664 155.791L212.531 152.136C212.531 152.136 214.949 146.548 220.338 146.548Z" fill="white" stroke="#263238" stroke-linecap="round" stroke-linejoin="round"/>
<path d="M161.082 297.61C181.631 297.61 198.29 293.854 198.29 289.221C198.29 284.587 181.631 280.831 161.082 280.831C140.533 280.831 123.875 284.587 123.875 289.221C123.875 293.854 140.533 297.61 161.082 297.61Z" fill="#263238" fill-opacity="0.1"/>
<path d="M190.144 89.845C190.144 89.845 195.022 114.325 195.889 118.854C196.757 123.383 198.35 134.148 200.156 138.869C201.961 143.59 201.371 149.634 200.468 151.333C199.563 152.81 198.523 154.2 197.361 155.486L191.303 147.586C191.303 147.586 187.699 108.879 187.563 103.397C187.428 97.915 190.144 89.845 190.144 89.845Z" fill="white" stroke="#263238" stroke-linecap="round" stroke-linejoin="round"/>
<path d="M193.358 146.619C193.358 146.619 197.198 149.015 197.873 150.032C198.549 151.049 199.032 152.343 198.506 153.445C197.98 154.547 195.115 157.874 194.389 158.522C193.664 159.169 193.053 156.588 192.967 154.369C192.882 152.151 193.358 146.619 193.358 146.619Z" fill="white" stroke="#263238" stroke-linecap="round" stroke-linejoin="round"/>
<path d="M172.706 280.859C172.706 280.859 184.744 286.71 185.505 287.848C186.266 288.986 183.521 290.5 176.347 290.5C169.173 290.5 168.959 289.554 166.108 288.801C163.257 288.047 157.576 288.609 156.808 286.909C156.04 285.21 157.377 279.358 157.377 279.358L172.706 280.859Z" fill="white" stroke="#263238" stroke-linecap="round" stroke-linejoin="round"/>
<path d="M156.726 283.88C156.726 283.88 166.68 289.924 165.805 292C164.931 294.076 157.735 294.076 153.946 293.508C150.156 292.939 142.1 287.819 141.673 285.957C141.247 284.094 142.313 281.235 148.151 280.674C153.988 280.112 156.726 283.88 156.726 283.88Z" fill="white" stroke="#263238" stroke-linecap="round" stroke-linejoin="round"/>
<path d="M186.944 185.128C186.944 185.128 181.256 228.933 180.268 235.354C179.279 241.774 176.144 251.97 174.451 259.713C173.492 264.267 172.78 268.869 172.318 273.5C172.146 274.817 172.177 276.153 172.411 277.46C172.653 279.351 172.688 280.859 172.688 280.859C170.156 281.494 167.58 281.936 164.981 282.181C161.774 282.373 157.43 282.373 157.43 282.373L156.008 270.101C156.008 270.101 157.067 251.97 157.693 246.687C158.319 241.405 158.987 199.86 158.959 198.722C158.93 197.585 158.681 187.581 158.681 187.581L178.056 185.505C178.056 185.505 180.701 177.954 184.676 178.331C188.65 178.707 186.944 185.128 186.944 185.128Z" fill="white" stroke="#263238" stroke-linecap="round" stroke-linejoin="round"/>
<path d="M184.703 178.331C180.729 177.954 178.084 185.505 178.084 185.505L158.688 187.581C158.688 187.581 158.751 190.24 158.815 192.97C160.885 193.155 162.797 193.262 164.432 193.262C170.647 193.252 176.856 192.903 183.033 192.217L183.865 183.514L185.166 192.38L186.062 192.089C186.616 187.865 186.972 185.114 186.972 185.114C186.972 185.114 188.678 178.707 184.703 178.331Z" fill="#263238" stroke="#263238" stroke-linecap="round" stroke-linejoin="round"/>
<path d="M138.453 186.45C138.453 186.45 138.453 186.72 138.496 187.211C138.759 192.373 140.323 222.285 140.799 227.803C141.333 233.846 138.666 240.452 138.802 245.926C138.937 251.401 140.224 281.051 140.224 281.051L141.646 285.957C141.646 285.957 144.987 283.695 148.194 283.695C151.401 283.695 156.726 283.88 156.726 283.88C156.726 283.88 157.003 279.913 156.975 278.598C156.947 277.282 156.826 272.554 156.826 272.554C156.826 272.554 162.251 247.818 162.578 245.742C162.905 243.665 167.114 207.788 167.086 206.636C167.057 205.484 167.974 189.451 167.974 189.451L138.453 186.45Z" fill="white" stroke="#263238" stroke-linecap="round" stroke-linejoin="round"/>
<path d="M167.775 193.226C167.896 191.036 167.981 189.472 167.981 189.472L138.453 186.45C138.453 186.45 138.453 186.72 138.496 187.211C138.496 187.837 138.574 188.825 138.645 190.055C145.549 191.292 157.53 193.24 164.434 193.24C165.571 193.262 166.68 193.247 167.775 193.226Z" fill="#263238" stroke="#263238" stroke-linecap="round" stroke-linejoin="round"/>
<path d="M160.21 70.5128C160.21 70.5128 157.089 71.039 155.901 72.4325C154.711 73.7881 153.641 75.2439 152.702 76.7839C152.538 77.3101 134.18 88.4517 134.18 88.4517L135.502 141.579C135.502 141.579 136.05 149.762 135.076 152.55C133.43 158.03 132.632 163.729 132.708 169.45C132.879 176.241 133.32 187.226 133.32 187.226C133.32 187.226 154.33 191.406 164.434 191.406C170.648 191.392 176.857 191.038 183.034 190.347L183.866 181.637L185.131 190.525L189.447 189.103L193.002 162.795C193.002 162.795 195.476 157.221 195.448 155.998C195.419 154.775 196.074 153.211 195.355 152.166C194.637 151.12 193.358 149.03 193.358 149.03C193.358 149.03 190.144 91.4166 190.144 89.8453C190.144 88.2739 180.638 79.0521 179.934 78.7037C179.23 78.3553 174.893 71.9064 169.268 70.1715C163.644 68.4366 160.21 70.5128 160.21 70.5128Z" fill="white" stroke="#263238" stroke-linecap="round" stroke-linejoin="round"/>
<path d="M154.487 78.5259L152.383 97.6592L161.029 101.676L158.867 108.168L180.489 146.165" stroke="#263238" stroke-linecap="round" stroke-linejoin="round"/>
<path d="M178.641 80.6729L185.125 95.8103L182.345 99.5147L186.981 105.999L185.125 147.707" stroke="#263238" stroke-linecap="round" stroke-linejoin="round"/>
<path d="M159.402 73.1291C159.56 76.8618 160.237 80.5543 161.415 84.1C163.284 89.326 175.677 125.381 175.677 125.381L183.691 153.594C183.691 153.594 182.631 124.855 182.603 123.639C182.574 122.424 176.531 82.5287 176.531 82.5287C176.531 82.5287 175.5 76.0869 173.871 73.6481C172.243 71.2093 161.329 66.6802 159.402 73.1291Z" fill="white" stroke="#263238" stroke-linecap="round" stroke-linejoin="round"/>
<path d="M158.636 70.342C158.636 70.342 153.595 70.8611 154.484 78.5258C155.373 86.1905 156.546 91.4165 156.546 91.4165" stroke="#263238" stroke-width="2" stroke-linecap="round" stroke-linejoin="round"/>
<path d="M155.93 101.52C155.93 101.52 158.063 110.4 159.52 112.839C160.978 115.278 165.386 117.717 168.522 117.717" stroke="#263238" stroke-linecap="round" stroke-linejoin="round"/>
<path d="M162.669 99.4297C162.669 99.4297 165.016 109.704 165.407 111.624C165.798 113.543 164.504 117.191 162.328 120.867" stroke="#263238" stroke-linecap="round" stroke-linejoin="round"/>
<path d="M161.704 122.083C161.48 121.96 161.314 121.753 161.242 121.508C161.17 121.263 161.198 120.999 161.32 120.775L161.569 120.319C161.63 120.211 161.712 120.115 161.811 120.039C161.91 119.962 162.022 119.906 162.143 119.874C162.263 119.841 162.389 119.833 162.513 119.85C162.636 119.867 162.755 119.908 162.863 119.971C163.087 120.094 163.253 120.301 163.326 120.545C163.399 120.79 163.373 121.054 163.254 121.279L163.005 121.727C162.944 121.837 162.861 121.933 162.762 122.01C162.664 122.088 162.55 122.145 162.429 122.178C162.308 122.211 162.182 122.22 162.057 122.203C161.933 122.187 161.813 122.146 161.704 122.083Z" fill="#263238"/>
<path d="M169.685 117.909C169.685 118.034 169.66 118.158 169.611 118.273C169.562 118.389 169.49 118.493 169.4 118.58C169.309 118.667 169.202 118.735 169.085 118.78C168.968 118.824 168.843 118.845 168.718 118.84H168.199C167.943 118.834 167.7 118.728 167.521 118.545C167.343 118.361 167.244 118.115 167.246 117.859C167.245 117.734 167.269 117.61 167.318 117.495C167.366 117.379 167.437 117.275 167.527 117.188C167.616 117.101 167.723 117.033 167.84 116.988C167.956 116.943 168.081 116.923 168.206 116.927H168.725C168.981 116.935 169.224 117.041 169.403 117.224C169.582 117.407 169.683 117.653 169.685 117.909Z" fill="#263238"/>
<path d="M155.942 102.217L154.748 94.6444C154.614 93.8636 154.783 93.0614 155.221 92.401C155.658 91.7405 156.33 91.2715 157.101 91.0893C157.932 90.9004 158.803 91.0408 159.532 91.481C160.262 91.9212 160.792 92.6269 161.012 93.4499L163.052 100.987" stroke="#263238" stroke-width="2" stroke-linecap="round" stroke-linejoin="round"/>
<path d="M184.049 107.334C185.76 107.163 186.987 105.424 186.79 103.451C186.592 101.478 185.044 100.017 183.333 100.189C181.622 100.36 180.395 102.099 180.592 104.072C180.79 106.045 182.337 107.506 184.049 107.334Z" fill="white" stroke="#263238" stroke-linecap="round" stroke-linejoin="round"/>
<path d="M175.305 73.5344C175.305 73.5344 182.152 83.1687 184.335 102.807" stroke="#263238" stroke-width="2" stroke-linecap="round" stroke-linejoin="round"/>
<path d="M184.516 105.08C185.451 104.993 186.126 104.039 186.025 102.948C185.923 101.857 185.084 101.043 184.149 101.13C183.215 101.217 182.539 102.171 182.641 103.262C182.742 104.353 183.582 105.167 184.516 105.08Z" fill="white" stroke="#263238" stroke-linecap="round" stroke-linejoin="round"/>
<path d="M194.522 148.12C194.102 149.421 193.757 150.746 193.491 152.087C193.491 152.656 193.356 154.355 192.026 153.971C190.696 153.587 191.094 146.797 191.265 146.043C191.436 145.29 194.671 147.729 194.671 147.729" fill="white"/>
<path d="M194.522 148.12C194.102 149.421 193.757 150.746 193.491 152.087C193.491 152.656 193.356 154.355 192.026 153.971C190.696 153.587 191.094 146.797 191.265 146.043C191.436 145.29 194.671 147.729 194.671 147.729" stroke="#263238" stroke-linecap="round" stroke-linejoin="round"/>
<path d="M151.362 142.104C152.545 142.756 153.867 143.114 155.216 143.15C157.307 143.15 161.125 142.439 162.525 142.801C163.926 143.164 167.502 147.672 167.502 147.672C167.502 147.672 168.569 148.717 168.064 149.243C167.559 149.769 166.528 150.665 165.817 150.11C165.106 149.556 161.551 146.627 161.551 146.627L152.585 150.288L148.902 148.369L151.362 142.104Z" fill="white" stroke="#263238" stroke-linecap="round" stroke-linejoin="round"/>
<path d="M137.634 87.2356C137.634 87.2356 131.726 87.9466 130.723 89.4966C129.721 91.0466 113.531 126.597 113.566 128.169C113.602 129.74 145.939 155.187 145.939 155.187L152.921 141.898L135.451 125.701L143.031 108.111" fill="white"/>
<path d="M137.634 87.2356C137.634 87.2356 131.726 87.9466 130.723 89.4966C129.721 91.0466 113.531 126.597 113.566 128.169C113.602 129.74 145.939 155.187 145.939 155.187L152.921 141.898L135.451 125.701L143.031 108.111" stroke="#263238" stroke-linecap="round" stroke-linejoin="round"/>
<path d="M148.535 161.608L165.614 161.956L165.528 151.333" stroke="#263238" stroke-linecap="round" stroke-linejoin="round"/>
<path d="M152.609 150.289L148.094 151.974" stroke="#263238" stroke-linecap="round" stroke-linejoin="round"/>
<path d="M157.754 62.8479C157.754 62.8479 159.695 78.0067 160.975 80.2677C162.255 82.5288 171.356 91.5871 171.356 91.5871C171.356 91.5871 174.2 81.1423 174.52 78.7035C174.84 76.2647 175.089 66.5096 175.089 66.5096L157.719 61.6321L157.754 62.8479Z" fill="white" stroke="#263238" stroke-linecap="round" stroke-linejoin="round"/>
<path d="M157.754 62.8479C157.754 62.8479 157.982 64.6254 158.33 67.05C159.692 68.3177 161.247 69.3595 162.938 70.1358C165.177 71.1241 171.15 71.6787 174.925 71.2379C175.025 68.6853 175.089 66.5096 175.089 66.5096L157.719 61.6321L157.754 62.8479Z" fill="#263238" stroke="#263238" stroke-linecap="round" stroke-linejoin="round"/>
<path d="M152.723 49.6161C152.723 49.6161 150.398 47.1773 149.246 49.9573C148.094 52.7374 150.668 56.9253 152.04 57.103C152.854 57.2092 153.682 57.1487 154.472 56.9253C154.472 56.9253 155.446 60.9354 156.342 62.1512C158.105 64.3807 160.364 66.1677 162.94 67.3701C166.111 68.7921 176.727 69.2969 178.07 67.3701C179.414 65.4432 179.336 55.1762 179.315 54.3087C179.293 53.4413 179.144 41.027 179.144 41.027C179.144 41.027 180.097 36.7183 178.803 33.7534C177.509 30.7884 164.518 26.6432 161.255 28.3568C157.991 30.0703 154.23 33.0566 153.974 36.8889C153.718 40.7213 153.875 46.9924 153.875 46.9924L152.723 49.6161Z" fill="white" stroke="#263238" stroke-linecap="round" stroke-linejoin="round"/>
<path d="M171.919 44.2122C171.919 44.2122 174.088 54.1663 173.59 55.3608C173.093 56.5554 171.535 56.5767 169.587 55.5315C167.639 54.4863 168.656 53.0927 168.656 53.0927" stroke="#263238" stroke-linecap="round" stroke-linejoin="round"/>
<path d="M164.367 55.7092C164.367 55.7092 165.306 58.3186 167.048 58.4964C168.79 58.6742 173.162 59.0154 173.162 59.0154" stroke="#263238" stroke-linecap="round" stroke-linejoin="round"/>
<path d="M158.148 44.5606L158.426 48.7413C158.426 48.7413 160.018 49.6159 163.673 49.6159C167.328 49.6159 168.529 48.7413 168.529 48.7413L168.43 44.5606C168.43 44.5606 163.126 41.425 158.148 44.5606Z" stroke="#263238" stroke-linecap="round" stroke-linejoin="round"/>
<path d="M171.934 44.5606L173.256 48.9191C173.256 48.9191 173.796 49.6301 177.458 49.6301C181.12 49.6301 182.321 48.7555 182.321 48.7555L182.215 44.5748C182.215 44.5748 176.904 41.425 171.934 44.5606Z" stroke="#263238" stroke-linecap="round" stroke-linejoin="round"/>
<path d="M168.449 44.5605H171.933" stroke="#263238" stroke-linecap="round" stroke-linejoin="round"/>
<path d="M158.169 44.5605L151.301 48.5707" stroke="#263238" stroke-linecap="round" stroke-linejoin="round"/>
<path d="M159.859 42.4703C159.859 42.4703 161.722 40.3799 165.946 42.1219" stroke="#263238" stroke-linecap="round" stroke-linejoin="round"/>
<path d="M172.574 42.4702C173.201 41.967 173.958 41.6512 174.757 41.5594C175.556 41.4676 176.364 41.6034 177.089 41.9512" stroke="#263238" stroke-linecap="round" stroke-linejoin="round"/>
<path d="M164.31 46.4801C164.31 47.248 164.032 47.9022 163.649 47.9022C163.265 47.9022 162.938 47.2765 162.938 46.4801C162.938 45.6838 163.215 45.0581 163.606 45.0581C163.997 45.0581 164.296 45.7051 164.31 46.4801Z" fill="#263238"/>
<path d="M175.462 46.3024C175.462 47.0703 175.185 47.7244 174.801 47.7244C174.417 47.7244 174.09 47.0987 174.09 46.3024C174.09 45.5061 174.367 44.8804 174.751 44.8804C175.135 44.8804 175.441 45.5345 175.462 46.3024Z" fill="#263238"/>
<path d="M163.53 30.191C163.53 30.191 165.208 33.8954 163.125 35.2463C162.482 35.6183 161.752 35.8142 161.009 35.8142C160.267 35.8142 159.537 35.6183 158.894 35.2463C159.448 36.0114 159.757 36.9262 159.781 37.8704C159.805 38.8146 159.543 39.7439 159.029 40.5363C158.008 42.2379 156.817 43.8316 155.474 45.293C155.474 45.293 155.851 49.7937 155.069 50.3198C154.287 50.846 152.154 50.0567 152.118 48.7343C152.083 47.4118 151.229 44.7668 151.194 43.4443C151.158 42.1218 150.547 38.6805 150.547 38.6805C150.547 38.6805 145.2 36.2986 148.037 33.3906C150.874 30.4825 156.896 28.1007 156.896 28.1007C156.896 28.1007 157.031 22.8107 160.693 21.2252C164.355 19.6396 172.233 17.2577 172.297 19.9027C172.397 21.2639 172.152 22.6284 171.586 23.8701C171.586 23.8701 178.191 23.607 182.798 28.1362C187.406 32.6654 187.249 36.8674 184.867 36.8674C182.485 36.8674 181.711 37.3936 181.711 37.3936C181.711 37.3936 186.268 40.0386 183.922 41.3611C181.575 42.6835 179.158 41.098 179.158 41.098C179.158 41.098 180.168 39.2493 177.196 36.8319C174.224 34.4145 163.53 30.191 163.53 30.191Z" fill="#263238" stroke="#263238" stroke-linecap="round" stroke-linejoin="round"/>
<path d="M73.3089 297.61C93.8579 297.61 110.516 293.853 110.516 289.22C110.516 284.586 93.8579 280.83 73.3089 280.83C52.7598 280.83 36.1016 284.586 36.1016 289.22C36.1016 293.853 52.7598 297.61 73.3089 297.61Z" fill="#263238" fill-opacity="0.1"/>
<path d="M97.8086 115.683V122.48L107.692 127.009C107.692 127.009 108.723 122.48 107.898 114.446L97.8086 115.683Z" fill="#999999" stroke="#263238" stroke-linecap="round" stroke-linejoin="round"/>
<path d="M48.7618 278.796C46.4997 280.738 44.3624 282.821 42.3627 285.032C39.5186 288.238 38.9641 291.431 41.609 292.959C44.254 294.488 48.4063 294.09 52.9355 291.26C57.4646 288.43 57.2798 287.293 59.9247 286.354C62.5697 285.416 64.269 283.51 64.269 280.495C64.269 277.481 54.6348 277.097 52.5586 276.94C50.4825 276.784 48.7618 278.796 48.7618 278.796Z" fill="white" stroke="#263238" stroke-linecap="round" stroke-linejoin="round"/>
<path d="M64.2421 280.496C64.2421 280.496 59.976 282.387 57.907 284.108C55.838 285.828 51.7141 292.021 46.8934 292.021C44.4385 292.023 42.0243 291.394 39.8828 290.194C39.8859 290.766 40.046 291.327 40.3457 291.814C40.6453 292.302 41.073 292.698 41.5821 292.96C44.2271 294.467 48.3794 294.09 52.9086 291.26C57.4377 288.431 57.2529 287.293 59.8978 286.354C62.5428 285.416 64.2421 283.517 64.2421 280.496Z" stroke="#263238" stroke-linecap="round" stroke-linejoin="round"/>
<path d="M96.6752 278.796C98.9373 280.738 101.075 282.821 103.074 285.032C105.918 288.238 106.473 291.431 103.828 292.959C101.183 294.488 97.0307 294.09 92.5015 291.26C87.9724 288.43 88.1572 287.293 85.5123 286.354C82.8673 285.416 81.168 283.51 81.168 280.495C81.168 277.481 90.8022 277.097 92.8784 276.94C94.9545 276.784 96.6752 278.796 96.6752 278.796Z" fill="white" stroke="#263238" stroke-linecap="round" stroke-linejoin="round"/>
<path d="M81.1875 280.496C81.1875 280.496 85.4536 282.387 87.5226 284.108C89.5917 285.828 93.7156 292.021 98.5362 292.021C100.991 292.023 103.405 291.394 105.547 290.194C105.544 290.766 105.384 291.327 105.084 291.814C104.784 292.302 104.357 292.698 103.848 292.96C101.203 294.467 97.0502 294.09 92.5211 291.26C87.9919 288.431 88.1768 287.293 85.5318 286.354C82.8868 285.416 81.1875 283.517 81.1875 280.496Z" stroke="#263238" stroke-linecap="round" stroke-linejoin="round"/>
<path d="M43.2852 171.547C43.2852 171.547 44.4157 214.03 44.9845 220.266C45.5533 226.501 47.2313 240.658 47.2313 241.44C47.2313 242.222 48.1698 273.542 48.1698 273.542L46.4705 276.386L47.0393 280.354L54.5903 281.861C58.3658 282.615 63.2789 283.752 64.0325 282.999C64.7862 282.245 64.9782 280.73 65.355 278.654C65.7318 276.578 66.4855 272.796 65.7318 269.781C64.9782 266.766 66.6775 234.657 66.8695 233.903C67.0614 233.149 71.4057 202.135 71.4057 202.135C71.4057 202.135 74.2498 227.632 76.3117 235.368C78.3737 243.104 77.6342 254.629 78.3879 259.158C79.1416 263.687 80.656 278.988 80.848 280.119C81.04 281.25 81.4097 282.963 81.4097 282.963C81.4097 282.963 90.852 281.641 92.5513 280.88C94.2742 280.245 96.0425 279.741 97.8412 279.372C97.8412 279.372 98.4029 268.608 97.6492 264.263C97.1001 261.211 96.7839 258.121 96.7036 255.02C96.7036 253.698 97.6492 211.784 97.6492 211.784L96.7036 171.185C96.7036 171.185 71.2138 173.83 61.3947 171.938C51.5756 170.047 43.4771 168.917 43.4771 168.917L43.2852 171.547Z" fill="white" stroke="#263238" stroke-linecap="round" stroke-linejoin="round"/>
<path d="M61.4089 171.924C51.5898 170.04 43.4771 168.917 43.4771 168.917L43.2852 171.554C43.2852 171.554 43.3492 173.993 43.4558 177.776C47.9565 179.034 57.1001 181.245 65.938 181.245C75.2808 181.245 90.1623 178.401 96.86 177.043L96.7178 171.178C96.7178 171.178 71.228 173.815 61.4089 171.924Z" fill="#263238" stroke="#263238" stroke-linecap="round" stroke-linejoin="round"/>
<path d="M94.207 267.598C94.3279 268.899 94.4061 269.646 94.4061 269.646" stroke="#263238" stroke-linecap="round" stroke-linejoin="round"/>
<path d="M91.3125 181.516C91.3125 181.516 92.0235 218.005 92.0235 231.777C92.0235 241.305 93.1754 255.767 93.8864 263.773" stroke="#263238" stroke-linecap="round" stroke-linejoin="round"/>
<path d="M53.0938 179.454L54.8144 219.043" stroke="#263238" stroke-linecap="round" stroke-linejoin="round"/>
<path d="M54.4688 222.136V228.677" stroke="#263238" stroke-linecap="round" stroke-linejoin="round"/>
<path d="M63.4185 71.8204C62.4889 71.8253 61.5738 72.0517 60.7491 72.4808C59.9243 72.9098 59.2137 73.5292 58.676 74.2876C57.5002 75.8391 56.1917 77.2856 54.7655 78.6106L37.8789 87.676L39.5285 152.136L40.147 174.178C40.147 174.178 53.1159 178.501 65.4733 178.501C77.8307 178.501 99.8651 173.524 99.8651 173.524C99.8651 173.524 98.0164 87.6475 98.635 87.6475C99.2536 87.6475 86.4838 76.5557 80.7175 73.6406C74.9511 70.7254 63.4185 71.8204 63.4185 71.8204Z" fill="white" stroke="#263238" stroke-linecap="round" stroke-linejoin="round"/>
<path d="M58.6055 79.6133C58.6055 79.6133 65.1468 91.665 67.9055 97.1753C70.6643 102.686 75.812 110.613 75.812 110.613L84.4224 87.5482" stroke="#263238" stroke-linecap="round" stroke-linejoin="round"/>
<path d="M63.442 156.054L63.1078 146.434L43.6758 145.304C43.6758 145.304 43.8678 159.467 44.2446 160.235" stroke="#263238" stroke-linecap="round" stroke-linejoin="round"/>
<path d="M63.6745 162.866L63.582 160.164" stroke="#263238" stroke-linecap="round" stroke-linejoin="round"/>
<path d="M86.7094 161.351L86.1406 145.496C86.1406 145.496 92.9379 146.057 98.6047 142.282" stroke="#263238" stroke-linecap="round" stroke-linejoin="round"/>
<path d="M57.5759 107.712C58.1732 109.597 59.9934 110.706 61.6358 110.18C63.2782 109.654 64.1101 107.698 63.5058 105.814C62.9014 103.93 61.0883 102.821 59.4459 103.347C57.8034 103.873 56.9715 105.828 57.5759 107.712Z" stroke="#263238" stroke-linecap="round" stroke-linejoin="round"/>
<path d="M57.7671 74.7214C57.7671 74.7214 55.5843 83.1114 60.5472 105.885" stroke="#263238" stroke-width="2" stroke-linecap="round" stroke-linejoin="round"/>
<path d="M62.0746 106.667C61.9283 106.962 61.7004 107.209 61.418 107.378C61.1356 107.548 60.8105 107.633 60.4814 107.623C60.1522 107.613 59.8329 107.509 59.5611 107.323C59.2894 107.137 59.0768 106.876 58.9485 106.573C58.8202 106.27 58.7816 105.936 58.8373 105.612C58.893 105.287 59.0407 104.985 59.2628 104.742C59.4849 104.499 59.772 104.325 60.0902 104.24C60.4084 104.155 60.7443 104.164 61.0579 104.264C61.5096 104.45 61.8696 104.807 62.06 105.257C62.2503 105.707 62.2556 106.214 62.0746 106.667Z" stroke="#263238" stroke-linecap="round" stroke-linejoin="round"/>
<path d="M97.8114 86.4387C97.8114 86.4387 100.897 88.7069 101.103 89.5316C101.31 90.3564 111.811 115.477 111.811 115.477L96.5742 117.723L96.7804 102.892" fill="white"/>
<path d="M97.8114 86.4387C97.8114 86.4387 100.897 88.7069 101.103 89.5316C101.31 90.3564 111.811 115.477 111.811 115.477L96.5742 117.723L96.7804 102.892" stroke="#263238" stroke-linecap="round" stroke-linejoin="round"/>
<path d="M39.9406 86.8511C39.9406 86.8511 36.4353 87.2635 35.6105 89.9369C34.7857 92.6103 28.8203 119.799 28.8203 119.799L50.6484 117.723L48.5865 97.3314" fill="white"/>
<path d="M39.9406 86.8511C39.9406 86.8511 36.4353 87.2635 35.6105 89.9369C34.7857 92.6103 28.8203 119.799 28.8203 119.799L50.6484 117.723L48.5865 97.3314" stroke="#263238" stroke-linecap="round" stroke-linejoin="round"/>
<path d="M82.1055 73.4414C82.1055 73.4414 87.5163 76.5272 88.0495 84.2061C88.5828 91.8851 88.0495 93.8333 88.0495 93.8333" stroke="#263238" stroke-width="2" stroke-linecap="round" stroke-linejoin="round"/>
<path d="M90.4941 103.667C90.4941 103.667 90.0106 112.747 89.0223 115.37C88.034 117.994 84.1235 121.101 81.0234 121.599" stroke="#263238" stroke-linecap="round" stroke-linejoin="round"/>
<path d="M83.4927 102.685C83.4927 102.685 83.059 113.159 83.0163 115.107C82.9736 117.055 84.936 120.446 87.7517 123.696" stroke="#263238" stroke-linecap="round" stroke-linejoin="round"/>
<path d="M88.5596 124.837L88.6424 124.769C89.0297 124.455 89.0891 123.887 88.775 123.499L88.3764 123.008C88.0623 122.62 87.4936 122.561 87.1063 122.875L87.0235 122.942C86.6361 123.257 86.5767 123.825 86.8909 124.213L87.2894 124.704C87.6036 125.091 88.1722 125.151 88.5596 124.837Z" fill="#263238"/>
<path d="M79.9097 121.93L79.9295 122.035C80.0224 122.525 80.4949 122.847 80.9849 122.754L81.6066 122.636C82.0966 122.544 82.4185 122.071 82.3257 121.581L82.3058 121.476C82.213 120.986 81.7405 120.664 81.2505 120.757L80.6288 120.875C80.1388 120.968 79.8168 121.44 79.9097 121.93Z" fill="#263238"/>
<path d="M90.6007 104.357L90.3945 96.7273C90.3753 95.9316 90.0601 95.1715 89.5105 94.5957C88.961 94.0198 88.2165 93.6695 87.4225 93.6131C86.5791 93.5503 85.7452 93.8239 85.103 94.3742C84.4608 94.9244 84.0626 95.7066 83.9954 96.5496L83.3555 104.285" stroke="#263238" stroke-width="2" stroke-linecap="round" stroke-linejoin="round"/>
<path d="M108.315 121.862L103.402 120.831L86.1026 117.951L61.8429 113.329L56.0908 110.791C56.0908 110.791 50.6515 103.681 50.1822 102.97C49.713 102.259 43.5627 104.74 43.7831 105.686C44.0035 106.632 44.7288 116.081 45.2052 116.678C45.6815 117.276 50.9928 117.268 50.9928 117.268C50.9928 117.268 76.3333 129.498 77.3856 129.946C92.0112 136.11 99.0644 136.053 101.56 136.459C104.056 136.864 105.684 135.854 107.12 134.205C108.556 132.555 108.315 121.862 108.315 121.862Z" fill="#999999" stroke="#263238" stroke-linecap="round" stroke-linejoin="round"/>
<path d="M49.4416 102.87C49.4416 102.87 46.4909 102.991 42.1182 105.942C40.4899 107.044 39.6367 107.833 39.6367 108.31C39.7299 108.876 39.8898 109.43 40.1131 109.959C42.9481 108.594 45.9171 107.526 48.9723 106.774" fill="#999999"/>
<path d="M49.4416 102.87C49.4416 102.87 46.4909 102.991 42.1182 105.942C40.4899 107.044 39.6367 107.833 39.6367 108.31C39.7299 108.876 39.8898 109.43 40.1131 109.959C42.9481 108.594 45.9171 107.526 48.9723 106.774" stroke="#263238" stroke-linecap="round" stroke-linejoin="round"/>
<path d="M50.6221 110.435C50.6221 110.435 42.5948 112.44 41.2936 112.682C39.9924 112.924 39.7578 111.616 39.7578 111.146C39.7578 110.677 40.1133 109.959 41.5282 109.255C42.9432 108.551 50.0604 106.653 50.0604 106.653" fill="#999999"/>
<path d="M50.6221 110.435C50.6221 110.435 42.5948 112.44 41.2936 112.682C39.9924 112.924 39.7578 111.616 39.7578 111.146C39.7578 110.677 40.1133 109.959 41.5282 109.255C42.9432 108.551 50.0604 106.653 50.0604 106.653" stroke="#263238" stroke-linecap="round" stroke-linejoin="round"/>
<path d="M51.4527 114.097C51.4527 114.097 42.1171 115.043 41.4061 114.453C41.1885 114.216 41.0235 113.936 40.9218 113.631C40.8201 113.325 40.784 113.002 40.816 112.682L49.2059 110.905" fill="#999999"/>
<path d="M51.4527 114.097C51.4527 114.097 42.1171 115.043 41.4061 114.453C41.1885 114.216 41.0235 113.936 40.9218 113.631C40.8201 113.325 40.784 113.002 40.816 112.682L49.2059 110.905" stroke="#263238" stroke-linecap="round" stroke-linejoin="round"/>
<path d="M48.851 114.567L41.6484 114.922C41.6484 114.922 41.9968 115.989 42.3595 116.103C44.0658 116.524 45.8043 116.802 47.557 116.935C48.7063 116.972 49.8515 117.091 50.984 117.29" fill="#999999"/>
<path d="M48.851 114.567L41.6484 114.922C41.6484 114.922 41.9968 115.989 42.3595 116.103C44.0658 116.524 45.8043 116.802 47.557 116.935C48.7063 116.972 49.8515 117.091 50.984 117.29" stroke="#263238" stroke-linecap="round" stroke-linejoin="round"/>
<path d="M33.3516 119.387C33.3516 119.387 36.6435 133.608 37.4683 134.631C38.2931 135.655 45.0904 134.631 51.8877 132.569C58.685 130.508 87.5166 118.157 87.5166 118.157L91.6333 118.975C91.6333 118.975 89.9838 113.827 87.1042 113.621C84.2246 113.415 50.6505 117.723 50.6505 117.723L33.3516 119.387Z" fill="#999999" stroke="#263238" stroke-linecap="round" stroke-linejoin="round"/>
<path d="M62.1602 62.7551C62.1602 62.7551 62.1602 63.0609 62.1602 63.5799C62.2241 66.2889 62.4872 74.8921 63.1769 76.9683C64.0017 79.4355 75.1219 100.24 75.9751 98.5902C76.8284 96.9406 81.9477 74.494 81.9477 74.494V65.6418C81.9477 65.6418 79.2671 67.9029 74.3256 67.9029C69.3841 67.9029 62.1602 62.7551 62.1602 62.7551Z" fill="#999999" stroke="#263238" stroke-linecap="round" stroke-linejoin="round"/>
<path d="M78.6557 74.9561C79.8088 74.2519 80.9112 73.4679 81.9548 72.6098V65.6418C81.9548 65.6418 79.2742 67.9029 74.3327 67.9029C69.3912 67.9029 62.1602 62.7551 62.1602 62.7551C62.1602 62.7551 62.1602 63.0609 62.1602 63.5799C62.1602 64.5327 62.2313 66.2178 62.3166 68.0948C62.5116 68.4074 62.7303 68.7045 62.9707 68.9836C64.3927 70.626 71.2042 74.7499 72.8538 75.1623C74.5033 75.5747 76.7999 75.98 78.6557 74.9561Z" fill="#263238" stroke="#263238" stroke-linecap="round" stroke-linejoin="round"/>
<path d="M86.8984 50.8099C86.8984 50.8099 90.1904 48.9542 90.1904 52.4595C90.1904 55.9648 87.1046 60.0815 87.1046 60.0815L86.8984 50.8099Z" fill="#999999" stroke="#263238" stroke-linecap="round" stroke-linejoin="round"/>
<path d="M57.4464 51.016C57.4464 51.016 52.9102 49.7789 52.9102 53.9028C52.9102 58.0266 57.034 60.6929 57.034 60.6929H59.8781C59.8781 60.6929 61.5276 64.8168 62.971 66.4593C64.4144 68.1017 71.2045 72.2256 72.8541 72.638C74.5036 73.0504 76.7647 73.4627 78.6204 72.4318C80.9519 70.9783 83.1003 69.25 85.0195 67.284C85.8443 66.2602 87.2877 59.2567 87.2877 59.2567C87.2877 59.2567 87.7 46.6931 86.8753 42.3701C86.0505 38.0472 80.6966 31.2499 73.2807 30.4251C65.8648 29.6003 58.8613 35.5728 57.8375 40.3082C56.8136 45.0435 57.4464 51.016 57.4464 51.016Z" fill="#999999" stroke="#263238" stroke-linecap="round" stroke-linejoin="round"/>
<path d="M70.8279 54.3152C70.8279 54.3152 69.4059 57.1948 71.8589 58.0196C74.3119 58.8443 77.419 58.6382 78.0376 57.401C78.6562 56.1638 77.6252 54.7276 77.6252 54.7276" stroke="#263238" stroke-linecap="round" stroke-linejoin="round"/>
<path d="M68.3594 59.4629C68.3594 59.4629 73.5071 63.7859 80.5106 59.6691" stroke="#263238" stroke-linecap="round" stroke-linejoin="round"/>
<path d="M71.2422 63.3736C71.2422 63.3736 75.5723 65.8479 78.4519 62.9612" stroke="#263238" stroke-linecap="round" stroke-linejoin="round"/>
<path d="M68.7732 51.8411C69.3425 51.8411 69.8041 51.1026 69.8041 50.1915C69.8041 49.2805 69.3425 48.542 68.7732 48.542C68.2038 48.542 67.7422 49.2805 67.7422 50.1915C67.7422 51.1026 68.2038 51.8411 68.7732 51.8411Z" fill="#263238"/>
<path d="M79.894 49.9852C79.894 50.8953 79.4318 51.6348 78.863 51.6348C78.2942 51.6348 77.832 50.9238 77.832 49.9852C77.832 49.0467 78.2942 48.3428 78.863 48.3428C79.4318 48.3428 79.894 49.0751 79.894 49.9852Z" fill="#263238"/>
<path d="M65.8867 47.9303C65.8867 47.9303 66.9177 46.2807 70.8638 46.8993" stroke="#263238" stroke-linecap="round" stroke-linejoin="round"/>
<path d="M77.2148 47.1055C77.2148 47.1055 79.0706 44.2188 81.9573 47.1055" stroke="#263238" stroke-linecap="round" stroke-linejoin="round"/>
<path d="M86.8976 42.356C86.6301 41.133 86.1667 39.9613 85.5253 38.8862C85.2855 40.0262 85.2017 41.1935 85.2765 42.356C85.5751 43.8633 86.6345 45.9679 86.6345 47.0202C86.6345 48.0725 86.4781 52.2888 87.2318 51.6916C87.3064 51.6127 87.3666 51.5212 87.4095 51.4214C87.4566 48.3912 87.2855 45.3616 86.8976 42.356Z" fill="#263238" stroke="#263238" stroke-linecap="round" stroke-linejoin="round"/>
<path d="M76.5446 33.8238C77.8668 33.7538 79.1828 33.5946 80.4836 33.3475C78.3829 31.7749 75.9071 30.7796 73.3024 30.4607C65.8865 29.636 58.883 35.6085 57.8592 40.3438C56.8353 45.0792 57.4468 51.0517 57.4468 51.0517C57.4468 51.0517 59.0821 52.1893 59.6865 50.9877C60.2908 49.7861 59.6865 47.8237 60.2908 45.7191C60.8952 43.6145 61.7911 42.5551 61.9404 40.8984C62.0897 39.2418 61.0374 36.8385 61.6418 35.4805C62.2461 34.1225 66.0074 31.5699 68.4177 32.4729C71.011 33.4551 73.773 33.9143 76.5446 33.8238Z" fill="#263238" stroke="#263238" stroke-linecap="round" stroke-linejoin="round"/>
</svg>
