<svg width="425" height="250" viewBox="0 0 425 250" fill="none" xmlns="http://www.w3.org/2000/svg">
<g clip-path="url(#clip0_835_35)">
<g opacity="0.4">
<path d="M172.685 169.125C173.178 122.741 157.388 88.6924 157.388 88.6924H8.14844L8.85901 89.8668L14.7804 169.391H149.493V214.108H213.641V169.125H172.685Z" fill="#525252" stroke="#263238" stroke-linecap="round" stroke-linejoin="round"/>
<path d="M65.883 248.393H60.7313C60.3929 248.391 60.068 248.261 59.8224 248.028C59.5768 247.795 59.4289 247.478 59.4089 247.14L56.9219 210.17H69.6825L67.1955 247.14C67.1803 247.478 67.0353 247.796 66.7908 248.03C66.5462 248.263 66.2211 248.393 65.883 248.393Z" fill="white" stroke="#263238" stroke-linecap="round" stroke-linejoin="round"/>
<path d="M236.195 248.393H231.043C230.714 248.379 230.403 248.242 230.169 248.011C229.936 247.779 229.797 247.468 229.78 247.14L227.293 210.17H240.054L237.567 247.14C237.546 247.486 237.391 247.811 237.135 248.045C236.879 248.279 236.542 248.404 236.195 248.393Z" fill="white" stroke="#263238" stroke-linecap="round" stroke-linejoin="round"/>
<path d="M11.2892 248.393H6.13757C5.79919 248.391 5.47421 248.261 5.2286 248.028C4.983 247.795 4.83517 247.478 4.81512 247.14L2.32812 210.17H15.0888L12.6018 247.14C12.5865 247.478 12.4415 247.796 12.197 248.03C11.9525 248.263 11.6273 248.393 11.2892 248.393Z" fill="white" stroke="#263238" stroke-linecap="round" stroke-linejoin="round"/>
<path d="M181.597 248.393H176.485C176.146 248.394 175.82 248.264 175.574 248.031C175.328 247.797 175.18 247.478 175.163 247.14L172.676 210.17H185.367L182.88 247.14C182.861 247.471 182.719 247.783 182.481 248.015C182.244 248.246 181.929 248.381 181.597 248.393Z" fill="white" stroke="#263238" stroke-linecap="round" stroke-linejoin="round"/>
<path d="M64.4026 214.108V169.125H23.4462C23.9396 122.741 8.14915 88.6924 8.14915 88.6924H2.94817C2.59352 88.6924 2.24237 88.7624 1.91484 88.8984C1.58732 89.0344 1.28987 89.2338 1.03955 89.485C0.78924 89.7362 0.590988 90.0344 0.456172 90.3625C0.321355 90.6905 0.252625 91.0419 0.253924 91.3965V214.108H64.4026Z" fill="#263238" stroke="#263238" stroke-linecap="round" stroke-linejoin="round"/>
<path d="M64.4023 169.125H237.525C239.205 169.125 240.817 169.793 242.005 170.981C243.193 172.169 243.861 173.781 243.861 175.461V214.029H64.4023V169.125Z" fill="#525252" stroke="#263238" stroke-linecap="round" stroke-linejoin="round"/>
</g>
<path d="M398.054 248.284H394.639C394.415 248.285 394.2 248.198 394.038 248.044C393.877 247.89 393.781 247.679 393.771 247.455L391.066 219.289H401.626L398.922 247.455C398.912 247.679 398.816 247.89 398.654 248.044C398.492 248.198 398.277 248.285 398.054 248.284Z" fill="white" stroke="#263238" stroke-linecap="round" stroke-linejoin="round"/>
<path d="M430.948 248.284H427.543C427.319 248.285 427.102 248.199 426.939 248.045C426.776 247.891 426.678 247.68 426.665 247.455L423.961 219.289H434.521L431.827 247.455C431.812 247.679 431.713 247.888 431.55 248.042C431.387 248.196 431.172 248.282 430.948 248.284Z" fill="white" stroke="#263238" stroke-linecap="round" stroke-linejoin="round"/>
<path d="M377.331 248.284H373.916C373.693 248.285 373.478 248.198 373.316 248.044C373.154 247.89 373.058 247.679 373.048 247.455L370.344 219.289H380.904L378.2 247.455C378.189 247.679 378.093 247.89 377.932 248.044C377.77 248.198 377.555 248.285 377.331 248.284Z" fill="white" stroke="#263238" stroke-linecap="round" stroke-linejoin="round"/>
<path d="M343.116 248.284H339.711C339.487 248.285 339.27 248.199 339.107 248.045C338.944 247.891 338.846 247.68 338.833 247.455L336.129 219.289H346.689L343.995 247.455C343.98 247.679 343.881 247.888 343.718 248.042C343.555 248.196 343.34 248.282 343.116 248.284Z" fill="white" stroke="#263238" stroke-linecap="round" stroke-linejoin="round"/>
<path opacity="0.4" d="M392.912 220.443H325.289C325.289 220.443 318.381 197.35 312.992 175.046C307.604 152.742 301.465 124.714 307.998 118.95C314.532 113.187 331.812 123.174 344.879 125.859C357.946 128.543 360.669 125.474 369.473 116.246C378.276 107.019 385.993 92.0374 400.975 82.4349C415.956 72.8323 427.108 71.2927 437.49 77.826C444.091 84.0669 448.074 92.5829 448.632 101.65C449.402 116.631 445.178 135.461 439.799 145.834C434.421 156.206 392.912 220.443 392.912 220.443Z" fill="#525252" stroke="#263238" stroke-linecap="round" stroke-linejoin="round"/>
<path d="M402.416 178.174H329.385C329.385 178.174 316.22 165.009 314.246 133.428" stroke="#263238" stroke-linecap="round" stroke-linejoin="round"/>
<path d="M351.354 50.4595L359.624 55.5124C359.624 55.5124 353.88 86.9848 355.262 103.525C356.644 120.066 363.532 135.925 363.532 135.925H341.297C341.297 135.925 333.027 116.187 329.356 102.371C325.684 88.5539 332.109 56.1934 332.109 56.1934L351.354 50.4595Z" fill="#757575" stroke="#263238" stroke-linecap="round" stroke-linejoin="round"/>
<path d="M293.759 104.857L288.005 100.258C288.005 100.258 285.252 91.7611 283.189 89.2346C281.127 86.7082 277.672 86.7082 273.764 86.2739C269.856 85.8397 267.33 84.4383 267.103 86.0469C266.997 86.712 267.122 87.3932 267.455 87.9781C267.789 88.563 268.312 89.0167 268.938 89.2642C270.093 89.7182 273.537 91.3269 273.537 91.3269C272.722 91.9271 271.774 92.323 270.774 92.4816C269.629 92.4816 265.583 89.0175 263.056 88.0997C260.53 87.1819 258.694 85.8002 258.921 86.945C259.148 88.0898 264.843 98.9161 266.412 100.762C267.981 102.607 269.175 102.143 273.074 103.515C276.972 104.887 278.126 105.351 278.126 105.351L282.074 106.505L291.035 115.003L293.759 104.857Z" fill="white" stroke="#263238" stroke-linecap="round" stroke-linejoin="round"/>
<path d="M264.815 99.8044C264.815 99.8044 257.828 92.0671 257.907 89.9847C257.986 87.9023 257.729 79.0696 258.677 78.961C259.624 78.8524 260.986 79.04 260.651 82.9086C260.315 86.7773 262.466 88.6721 262.832 89.4123C263.197 90.1525 262.743 94.9489 262.743 94.9489L264.815 99.8044Z" fill="white" stroke="#263238" stroke-linecap="round" stroke-linejoin="round"/>
<path d="M263.421 98.2061C263.421 98.2061 261.842 94.061 261.378 92.028C260.915 89.995 258.546 81.4879 259.405 81.1721C260.263 80.8563 261.665 80.6885 262.365 84.5374C263.066 88.3864 262.434 93.7156 262.967 94.3473C263.764 95.0843 264.615 95.7606 265.514 96.3704L263.421 98.2061Z" fill="white" stroke="#263238" stroke-linecap="round" stroke-linejoin="round"/>
<path d="M265.052 100.723C265.052 100.723 261.677 96.1039 261.44 94.0412C261.203 91.9786 261.331 83.5208 262.249 83.284C263.167 83.0471 263.946 85.9585 264.223 89.8666C264.499 93.7748 264.637 96.1236 265.101 96.7749C265.802 97.6008 266.568 98.3697 267.391 99.0744L265.052 100.723Z" fill="white" stroke="#263238" stroke-linecap="round" stroke-linejoin="round"/>
<path d="M279.981 105.311C279.981 105.311 268.948 103.703 266.885 102.785C264.822 101.867 263.668 98.6497 263.668 97.7319C263.668 96.8141 262.75 86.9352 262.75 86.2444C262.75 85.5535 263.441 84.4087 264.586 85.0996C265.73 85.7904 266.648 92.679 266.648 92.679L273.557 98.4228C273.557 98.4228 279.3 98.8866 280.672 100.495" fill="white"/>
<path d="M279.981 105.311C279.981 105.311 268.948 103.703 266.885 102.785C264.822 101.867 263.668 98.6497 263.668 97.7319C263.668 96.8141 262.75 86.9352 262.75 86.2444C262.75 85.5535 263.441 84.4087 264.586 85.0996C265.73 85.7904 266.648 92.679 266.648 92.679L273.557 98.4228C273.557 98.4228 279.3 98.8866 280.672 100.495" stroke="#263238" stroke-linecap="round" stroke-linejoin="round"/>
<path d="M327.235 60.5656C327.235 60.5656 323.564 61.2564 322.646 63.3289C321.728 65.4014 315.738 112.26 315.738 112.26L290.7 100.999L284.266 114.816C284.266 114.816 323.742 134.8 326.999 135.491C330.255 136.182 338.022 137.1 341.24 134.573C344.457 132.047 332.249 121.477 330.028 111.746C324.768 88.7219 325.429 72.9315 325.429 72.9315C325.429 72.9315 331.834 57.8121 327.235 60.5656Z" fill="white" stroke="#263238" stroke-linecap="round" stroke-linejoin="round"/>
<path d="M322.184 87.4486C322.184 87.4486 327.927 110.424 330.454 116.622C332.98 122.819 338.033 133.162 338.033 133.162L343.55 134.08C343.55 134.08 332.062 109.269 330 99.3902C327.937 89.5113 332.526 64.4735 332.753 63.5557C332.98 62.6379 331.145 56.8941 327.7 58.0389" fill="white"/>
<path d="M322.184 87.4486C322.184 87.4486 327.927 110.424 330.454 116.622C332.98 122.819 338.033 133.162 338.033 133.162L343.55 134.08C343.55 134.08 332.062 109.269 330 99.3902C327.937 89.5113 332.526 64.4735 332.753 63.5557C332.98 62.6379 331.145 56.8941 327.7 58.0389" stroke="#263238" stroke-linecap="round" stroke-linejoin="round"/>
<path d="M332.523 81.0139L339.185 97.7814L346.301 79.8691L337.803 73.2075L332.523 81.0139Z" fill="white" stroke="#263238" stroke-linecap="round" stroke-linejoin="round"/>
<path d="M330.917 67.4639L328.391 86.9848L339.187 78.7146L330.917 67.4639Z" fill="white" stroke="#263238" stroke-linecap="round" stroke-linejoin="round"/>
<path d="M316.212 17.1513C316.212 17.1513 311.159 29.0928 311.386 31.1653C311.613 33.2378 312.531 36.6722 311.613 38.9717C310.695 41.2712 305.415 44.0246 306.333 46.3241C307.251 48.6236 310.281 49.7684 310.281 49.7684C310.281 49.7684 310.281 60.5652 312.57 63.3285C314.86 66.0918 327.048 63.3285 327.048 63.3285L338.072 79.4052L353.922 50.6862L351.632 45.8702C351.632 45.8702 355.767 27.948 347.033 19.9047C338.299 11.8615 319.656 13.707 316.212 17.1513Z" fill="white" stroke="#263238" stroke-linecap="round" stroke-linejoin="round"/>
<path d="M338.495 44.9426C338.495 44.9426 338.722 52.9859 334.133 55.9762Z" fill="white"/>
<path d="M338.495 44.9426C338.495 44.9426 338.722 52.9859 334.133 55.9762" stroke="#263238" stroke-linecap="round" stroke-linejoin="round"/>
<path d="M317.355 37.9357C317.355 39.0213 316.951 39.9095 316.437 39.9095C315.924 39.9095 315.52 39.0411 315.52 37.9357C315.52 36.8304 315.934 35.9619 316.437 35.9619C316.941 35.9619 317.355 36.86 317.355 37.9357Z" fill="#263238"/>
<path d="M314.652 32.5373C314.652 32.5373 318.324 28.5897 320.623 33.0012" stroke="#263238" stroke-linecap="round" stroke-linejoin="round"/>
<path d="M319.656 10.6773C319.656 10.6773 310.922 13.4308 313.685 16.6481C316.448 19.8654 317.633 19.6088 324.018 18.7206C330.403 17.8324 335.505 21.0102 331.834 23.5465C328.163 26.0829 324.709 27.2178 326.781 29.468C328.854 31.7181 332.288 33.4156 331.834 35.2117C331.38 37.0079 331.597 38.656 332.979 38.656C334.361 38.656 335.278 37.0474 336.423 35.2117C337.568 33.3761 341.476 30.3858 342.631 36.3565C343.785 42.3273 340.795 44.8538 339.67 44.8538H338.525C338.525 44.8538 342.473 49.4528 345.641 48.5349C347.75 47.892 349.762 46.9658 351.621 45.7815C351.621 45.7815 358.046 37.7382 357.365 28.7771C356.684 19.816 352.539 14.0723 342.66 10.628C332.781 7.18368 319.656 10.6773 319.656 10.6773Z" fill="#263238" stroke="#263238" stroke-linecap="round" stroke-linejoin="round"/>
<path d="M352.964 49.0776L337.805 78.4873L347.457 88.6426C347.457 88.6426 355.727 66.3583 356.645 60.8514C357.562 55.3445 358.253 51.4265 358.253 51.4265L352.964 49.0776Z" fill="white" stroke="#263238" stroke-linecap="round" stroke-linejoin="round"/>
<path d="M344.191 132.116C344.191 132.116 299.781 129.816 294.185 132.116C288.589 134.415 287.276 140.337 287.938 146.258C288.599 152.18 291.885 187.057 293.198 196.926C294.51 206.795 295.172 218.963 294.185 221.263C293.198 223.562 290.237 227.52 291.224 229.819C292.211 232.119 293.859 233.106 293.859 234.093C293.859 235.08 292.537 236.728 292.537 236.728C292.537 236.728 280.368 241.988 276.095 243.636C271.822 245.284 271.486 246.597 272.473 247.258C273.46 247.919 293.859 247.258 297.471 247.258C301.083 247.258 308.001 244.949 308.001 244.949V246.597H316.884V240.35C316.884 238.371 316.776 236.395 316.558 234.428C316.558 234.428 318.196 230.145 317.87 228.507C317.545 226.869 315.571 223.237 314.91 219.95C314.249 216.664 314.91 212.055 315.235 208.433C315.5 205.799 315.39 203.141 314.91 200.538C314.584 198.564 316.884 162.71 316.884 162.71C316.884 162.71 342.869 170.605 345.504 170.931C348.139 171.257 369.515 179.162 378.397 176.852C387.279 174.543 374.785 146.594 364.916 137.05C355.047 127.507 344.191 132.116 344.191 132.116Z" fill="#263238" stroke="#263238" stroke-linecap="round" stroke-linejoin="round"/>
<path d="M362.279 128.829C362.279 128.829 332.998 131.129 329.712 134.415C326.425 137.702 327.412 144.284 327.412 148.567C327.412 152.851 331.36 209.755 331.685 213.042C332.011 216.328 328.399 219.624 329.712 221.924C330.772 223.74 331.444 225.756 331.685 227.845C331.685 228.832 322.803 236.066 319.181 238.04C315.559 240.014 305.365 242.323 303.726 243.961C302.088 245.6 302.404 246.922 305.365 247.909C308.325 248.896 332.998 247.909 332.998 247.909C332.998 247.909 336.62 247.909 337.932 246.922C338.634 246.374 339.412 245.932 340.242 245.61L340.567 247.81H353.397C354.043 244.253 354.481 240.661 354.71 237.053C354.595 234.291 354.265 231.543 353.723 228.832C354.86 227.071 355.435 225.006 355.371 222.911C355.045 219.95 352.736 218.638 352.736 216.664C352.736 214.69 354.71 208.768 354.384 205.147C354.058 201.525 353.723 197.251 353.723 197.251L356.684 168.305C356.684 168.305 376.422 179.161 385.965 178.175C395.508 177.188 398.134 175.865 400.769 171.266C403.404 166.667 403.404 147.245 399.12 139.685C394.837 132.126 371.161 125.207 362.279 128.829Z" fill="#263238" stroke="#263238" stroke-linecap="round" stroke-linejoin="round"/>
<path d="M358.251 51.3774C358.251 51.3774 351.343 68.6088 350.672 78.9515C350.001 89.2943 350.899 113.404 353.425 120.303C355.952 127.201 357.096 131.553 357.096 131.553C357.096 131.553 380.072 134.998 383.062 136.152C386.052 137.307 392.25 146.258 393.395 153.838C393.73 156.029 393.967 158.378 394.135 160.628C394.452 165.778 394.063 170.948 392.98 175.994C392.783 176.931 392.743 177.721 393.039 177.968C393.957 178.885 406.264 173.329 410.399 159.088C414.534 144.847 412.462 128.07 408.79 120.263C405.119 112.457 390.868 65.8553 384.72 59.6477C378.571 53.4401 358.251 51.3774 358.251 51.3774Z" fill="white" stroke="#263238" stroke-linecap="round" stroke-linejoin="round"/>
<path d="M322.409 108.578L315.057 104.68C315.057 104.68 310.004 100.081 308.859 98.6991C307.714 97.3174 304.497 96.8634 301.951 96.6365C299.404 96.4095 294.598 95.2548 294.134 96.4095C293.671 97.5641 294.361 98.2451 295.516 98.6991C296.671 99.1531 301.033 100.081 301.487 100.772C301.941 101.462 302.405 101.916 301.033 102.607C299.661 103.298 293.444 103.525 292.763 103.525C292.082 103.525 284.482 100.308 282.894 100.564C281.305 100.821 282.43 102.173 283.811 103.318C285.193 104.463 290.927 109.979 291.845 111.588C292.763 113.197 298.753 115.723 301.497 116.187C304.24 116.651 314.82 116.868 314.82 116.868L321.254 118.477L322.409 108.578Z" fill="white" stroke="#263238" stroke-linecap="round" stroke-linejoin="round"/>
<path d="M367.669 63.9702C367.669 63.9702 361.008 70.4048 360.761 77.3033C360.514 84.2017 360.761 86.9453 360.761 88.1C360.761 89.2547 361.215 112.674 361.215 112.674L321.265 107.394L318.512 125.158L374.558 137.988C374.558 137.988 379.157 138.679 381.466 135.234C383.776 131.79 389.51 83.0865 389.51 83.0865" fill="white"/>
<path d="M367.669 63.9702C367.669 63.9702 361.008 70.4048 360.761 77.3033C360.514 84.2017 360.761 86.9453 360.761 88.1C360.761 89.2547 361.215 112.674 361.215 112.674L321.265 107.394L318.512 125.158L374.558 137.988C374.558 137.988 379.157 138.679 381.466 135.234C383.776 131.79 389.51 83.0865 389.51 83.0865" stroke="#263238" stroke-linecap="round" stroke-linejoin="round"/>
<path d="M372.012 115.753C372.697 116.278 373.323 116.877 373.877 117.539" stroke="#263238" stroke-linecap="round" stroke-linejoin="round"/>
<path d="M361.234 112.713C364.12 112.569 366.999 113.114 369.633 114.302" stroke="#263238" stroke-linecap="round" stroke-linejoin="round"/>
<path d="M365.367 115.013C365.367 115.013 371.111 116.621 372.493 120.529" stroke="#263238" stroke-linecap="round" stroke-linejoin="round"/>
<path opacity="0.4" d="M392.914 220.444C392.914 220.444 394.069 179.29 404.441 152.397C414.813 125.504 420.962 122.039 425.166 123.194C429.37 124.349 435.538 131.652 439.387 126.648C443.236 121.645 448.99 107.828 446.681 95.5313C444.371 83.2345 439.772 80.9251 437.463 77.8558C435.154 74.7866 447.45 82.0798 452.829 90.1526C458.208 98.2255 458.208 117.786 455.138 138.175C452.069 158.565 444.381 216.22 441.687 218.529C438.993 220.838 432.469 220.829 432.469 220.829H397.138L392.914 220.444Z" fill="#263238" stroke="#263238" stroke-linecap="round" stroke-linejoin="round"/>
<path d="M202.076 85.5338C202.076 85.5338 210.711 129.204 209.724 136.359C208.737 143.514 186.532 156.344 174.689 156.591C162.846 156.838 153.964 153.877 152.237 148.942C150.51 144.008 154.211 120.569 154.211 120.569C154.211 120.569 147.796 73.6909 148.536 71.4704C149.276 69.2499 151.497 68.0162 155.691 67.7695C159.885 67.5228 176.169 65.3022 176.169 65.3022L200.102 67.2761" fill="white"/>
<path d="M202.076 85.5338C202.076 85.5338 210.711 129.204 209.724 136.359C208.737 143.514 186.532 156.344 174.689 156.591C162.846 156.838 153.964 153.877 152.237 148.942C150.51 144.008 154.211 120.569 154.211 120.569C154.211 120.569 147.796 73.6909 148.536 71.4704C149.276 69.2499 151.497 68.0162 155.691 67.7695C159.885 67.5228 176.169 65.3022 176.169 65.3022L200.102 67.2761" stroke="#263238" stroke-linecap="round" stroke-linejoin="round"/>
<path d="M192.987 15.898C192.987 15.898 197.783 23.6748 198.464 26.1815C199.145 28.6883 200.754 31.8957 202.579 32.3497C204.405 32.8037 205.777 33.2675 204.869 35.5472C204.094 37.1281 202.908 38.4712 201.435 39.4356C201.435 39.4356 201.208 50.864 200.754 52.2654C200.3 53.6668 188.417 54.0912 188.417 54.0912L186.592 83.3331L164.426 65.9439L168.531 16.3618C168.531 16.3618 181.104 7.22311 192.987 15.898Z" fill="white" stroke="#263238" stroke-linecap="round" stroke-linejoin="round"/>
<path d="M197.072 31.205C197.329 32.3104 197.072 33.317 196.54 33.4453C196.007 33.5736 195.326 32.7742 195.069 31.6689C194.812 30.5635 195.069 29.5668 195.602 29.4385C196.135 29.3102 196.816 30.0997 197.072 31.205Z" fill="#263238"/>
<path d="M191.094 28.5736C191.404 27.7044 191.925 26.9262 192.612 26.3094C193.298 25.6926 194.127 25.2568 195.024 25.0413" stroke="#263238" stroke-linecap="round" stroke-linejoin="round"/>
<path d="M194.813 12.2465C194.813 12.2465 191.615 22.984 188.892 32.5767C186.168 42.1694 184.549 46.0578 185.003 49.9462C185.457 53.8346 188.892 70.0494 188.892 70.0494C188.892 70.0494 181.806 72.339 170.841 70.9672C163.895 70.0024 157.17 67.8386 150.965 64.5721C150.965 64.5721 152.11 53.5977 152.791 43.0872C153.472 32.5767 155.751 16.8158 160.785 12.7005C165.818 8.58507 187.727 6.72969 194.813 12.2465Z" fill="#263238" stroke="#263238" stroke-linecap="round" stroke-linejoin="round"/>
<path d="M188.259 106.259C188.259 106.259 174.443 103.051 170.742 102.311C167.041 101.571 155.445 108.726 152.977 110.7C150.51 112.674 150.017 114.894 155.445 114.401C160.873 113.907 178.39 110.207 178.39 110.207L188.999 112.18L188.259 106.259Z" fill="white" stroke="#263238" stroke-linecap="round" stroke-linejoin="round"/>
<path d="M179.624 103.545C179.624 103.545 191.22 99.5977 193.688 99.5977C196.155 99.5977 206.271 103.052 206.271 103.052L199.362 104.532H193.194L180.364 114.648L176.91 104.532L179.624 103.545Z" fill="white" stroke="#263238" stroke-linecap="round" stroke-linejoin="round"/>
<path d="M161.859 68.2631C161.859 68.2631 147.548 66.536 144.094 67.2762C140.64 68.0164 138.666 73.9378 138.666 75.9116C138.666 77.8854 134.719 128.711 134.472 132.659C134.225 136.606 138.173 139.814 141.627 139.814C145.081 139.814 185.791 121.556 185.791 121.556L179.623 103.545L154.95 112.18L156.924 80.3527" fill="white"/>
<path d="M161.859 68.2631C161.859 68.2631 147.548 66.536 144.094 67.2762C140.64 68.0164 138.666 73.9378 138.666 75.9116C138.666 77.8854 134.719 128.711 134.472 132.659C134.225 136.606 138.173 139.814 141.627 139.814C145.081 139.814 185.791 121.556 185.791 121.556L179.623 103.545L154.95 112.18L156.924 80.3527" stroke="#263238" stroke-linecap="round" stroke-linejoin="round"/>
<path d="M189.491 66.2893C190.725 66.2893 200.841 65.5491 203.061 67.7697C205.035 69.7435 219.839 104.285 223.48 112.782C223.577 113.011 223.623 113.258 223.615 113.506C223.606 113.754 223.543 113.997 223.43 114.219C223.317 114.44 223.157 114.633 222.961 114.786C222.765 114.939 222.538 115.046 222.296 115.102L189.245 122.543L186.777 106.012L206.269 103.051L199.607 79.1191" fill="white"/>
<path d="M189.491 66.2893C190.725 66.2893 200.841 65.5491 203.061 67.7697C205.035 69.7435 219.839 104.285 223.48 112.782C223.577 113.011 223.623 113.258 223.615 113.506C223.606 113.754 223.543 113.997 223.43 114.219C223.317 114.44 223.157 114.633 222.961 114.786C222.765 114.939 222.538 115.046 222.296 115.102L189.245 122.543L186.777 106.012L206.269 103.051L199.607 79.1191" stroke="#263238" stroke-linecap="round" stroke-linejoin="round"/>
<path d="M210.583 110.749C210.583 110.749 170.268 125.8 160.044 132.895C149.82 139.991 147.273 147.699 147.273 155.328C147.273 162.957 155.761 169.806 168.591 169.806C177.404 169.806 204.652 141.126 204.652 141.126C204.652 141.126 205.787 152.485 209.764 160.154C213.741 167.822 234.437 192.228 236.736 195.357C239.036 198.485 247.809 211.542 248.658 212.391C249.507 213.239 253.198 212.677 254.333 211.542C255.468 210.407 273.637 193.935 275.058 190.531C276.479 187.126 276.765 185.132 275.058 185.418C273.35 185.705 256.889 190.531 253.77 190.531H249.517C249.517 190.531 239.302 176.329 236.46 166.963C233.618 157.598 224.814 133.744 220.275 122.957C215.735 112.17 213.139 110.463 210.583 110.749Z" fill="white" stroke="#263238" stroke-linecap="round" stroke-linejoin="round"/>
<path d="M237.24 169.302C236.924 168.493 236.647 167.713 236.42 166.963C233.578 157.598 224.775 133.744 220.235 122.957C215.695 112.17 213.139 110.463 210.583 110.749C210.583 110.749 170.268 125.8 160.044 132.895C149.82 139.991 147.273 147.699 147.273 155.328C147.273 162.957 155.761 169.806 168.591 169.806C177.404 169.806 204.652 141.126 204.652 141.126C204.652 141.126 205.787 152.485 209.764 160.154C211.856 164.19 218.587 172.865 224.834 180.642L237.24 169.302Z" fill="#263238" stroke="#263238" stroke-linecap="round" stroke-linejoin="round"/>
<path d="M275.026 185.419C273.328 185.705 256.857 190.531 253.738 190.531H249.514L249.386 190.343C249.134 191.151 249.179 192.023 249.514 192.801C250.141 194.249 251.005 195.584 252.07 196.748L243.129 204.545C245.754 208.364 248.231 211.927 248.665 212.361C249.514 213.21 253.205 212.647 254.34 211.512C255.475 210.377 273.644 193.906 275.065 190.501C276.486 187.096 276.733 185.132 275.026 185.419Z" stroke="#263238" stroke-linecap="round" stroke-linejoin="round"/>
<path d="M178.213 166.963C178.213 166.963 177.078 153.334 186.73 144.531C196.382 135.728 208.876 135.738 211.403 146.811C213.929 157.884 206.577 206.735 204.593 215.825C202.609 224.914 201.761 232.306 201.761 232.306C201.691 233.49 206.744 236.757 212.547 239.688C219.367 243.132 221.351 244.8 220.502 246.498C219.653 248.195 215.39 248.205 208.294 247.919C201.198 247.633 189.839 249.054 188.418 247.919C186.996 246.784 186.72 244.228 187.283 239.688C187.838 236.212 188.693 232.792 189.839 229.464C189.839 229.464 190.964 195.356 189.543 184.57C188.122 173.783 187.569 166.677 187.569 166.677C187.569 166.677 184.746 168.947 178.213 166.963Z" fill="white" stroke="#263238" stroke-linecap="round" stroke-linejoin="round"/>
<path d="M208.322 247.919C215.418 248.205 219.681 248.205 220.53 246.498C221.379 244.791 219.395 243.133 212.576 239.688C207 236.876 202.134 233.767 201.818 232.464C200.881 233.037 199.845 233.905 199.845 234.863V238.554L187.913 236.58C187.676 237.636 187.479 238.721 187.35 239.738C186.788 244.278 187.064 246.834 188.485 247.969C189.907 249.104 201.226 247.643 208.322 247.919Z" fill="white" stroke="#263238" stroke-linecap="round" stroke-linejoin="round"/>
<path d="M205.895 209.597C208.688 195.435 213.583 156.137 211.432 146.811C208.876 135.738 196.392 135.738 186.759 144.531C177.127 153.324 175.242 167.23 175.242 167.23C179.322 168.382 183.667 168.174 187.618 166.638C187.618 166.638 188.18 173.743 189.592 184.53C190.115 188.478 190.214 204.554 190.135 209.597C195.318 210.816 200.712 210.816 205.895 209.597Z" fill="#263238" stroke="#263238" stroke-linecap="round" stroke-linejoin="round"/>
<path d="M179.506 151.962C179.045 153.083 178.659 154.234 178.352 155.407" stroke="#737373" stroke-linecap="round" stroke-linejoin="round"/>
<path d="M212.172 156.808C212.172 156.808 211.481 129.254 200.428 129.175C193.737 129.115 186.167 138.817 181.766 147.166" stroke="#737373" stroke-linecap="round" stroke-linejoin="round"/>
<path d="M123.126 66.1318C123.126 66.1318 128.06 76.4943 131.268 85.1297C134.475 93.7651 140.643 122.139 138.423 123.619C136.202 125.099 128.8 127.813 124.853 122.879C120.905 117.944 113.75 96.2324 113.75 96.2324L118.931 79.2083" fill="white"/>
<path d="M123.126 66.1318C123.126 66.1318 128.06 76.4943 131.268 85.1297C134.475 93.7651 140.643 122.139 138.423 123.619C136.202 125.099 128.8 127.813 124.853 122.879C120.905 117.944 113.75 96.2324 113.75 96.2324L118.931 79.2083" stroke="#263238" stroke-linecap="round" stroke-linejoin="round"/>
<path d="M125.431 84.1522L117.397 102.755L98.3796 136.359C98.3796 136.359 70.8845 137.208 66.9369 137.84C62.9893 138.471 46.8534 141.225 42.6294 143.544C38.4055 145.863 35.4349 148.202 34.8033 147.146C34.1717 146.09 32.4841 143.13 33.1157 140.169C33.7473 137.208 38.3167 132.343 40.2905 128.119C42.2643 123.895 59.0416 66.605 59.4857 63.6542C59.9299 60.7033 62.4465 56.0452 67.0948 52.8673C71.7431 49.6895 92.4582 45.2583 92.4582 45.2583C97.481 47.0658 102.358 49.2566 107.045 51.8113C112.749 55.1964 118.039 59.2131 120.358 62.1738C122.677 65.1345 127.543 77.7866 127.543 77.7866" fill="white"/>
<path d="M125.431 84.1522L117.397 102.755L98.3796 136.359C98.3796 136.359 70.8845 137.208 66.9369 137.84C62.9893 138.471 46.8534 141.225 42.6294 143.544C38.4055 145.863 35.4349 148.202 34.8033 147.146C34.1717 146.09 32.4841 143.13 33.1157 140.169C33.7473 137.208 38.3167 132.343 40.2905 128.119C42.2643 123.895 59.0416 66.605 59.4857 63.6542C59.9299 60.7033 62.4465 56.0452 67.0948 52.8673C71.7431 49.6895 92.4582 45.2583 92.4582 45.2583C97.481 47.0658 102.358 49.2566 107.045 51.8113C112.749 55.1964 118.039 59.2131 120.358 62.1738C122.677 65.1345 127.543 77.7866 127.543 77.7866" stroke="#263238" stroke-linecap="round" stroke-linejoin="round"/>
<path d="M65.4102 131.366L67.384 131.83" stroke="#263238" stroke-linecap="round" stroke-linejoin="round"/>
<path d="M42.4844 131.829C42.4844 131.829 47.8729 128.533 61.2355 130.606" stroke="#263238" stroke-linecap="round" stroke-linejoin="round"/>
<path d="M36.6328 142.745C36.6328 142.745 38.6066 138.067 51.841 137.672" stroke="#263238" stroke-linecap="round" stroke-linejoin="round"/>
<path d="M114.656 59.8447L115.287 73.158L108.734 65.7661L114.656 59.8447Z" fill="white" stroke="#263238" stroke-linecap="round" stroke-linejoin="round"/>
<path d="M100.286 34.0571L96.2695 43.7781L104.737 55.7591L105.566 71.2633L119.728 53.2918L103.879 31.3135L100.286 34.0571Z" fill="white" stroke="#263238" stroke-linecap="round" stroke-linejoin="round"/>
<path d="M105.102 45.0415C105.102 45.0415 110.579 57.6936 113.786 60.526L118.514 54.4862L105.684 41.8242L105.102 45.0415Z" fill="#263238" stroke="#263238" stroke-linecap="round" stroke-linejoin="round"/>
<path d="M139.389 20.1122C139.389 20.1122 138.54 32.1524 137.484 33.4255C136.428 34.6986 134.741 35.3302 134.741 35.9618C134.741 36.5934 135.579 43.9952 134.948 45.2585C134.316 46.5217 130.102 47.1928 130.102 47.1928C130.102 47.1928 125.671 57.9698 123.973 59.0356C122.276 60.1015 112.772 53.5485 109.811 50.3706C106.851 47.1928 104.324 44.6663 104.324 42.9787V39.1693L104.531 30.5043C104.531 30.5043 104.107 18.4542 107.699 15.4935C111.292 12.5328 129.263 14.4375 131.582 15.2862C133.902 16.1349 139.389 20.1122 139.389 20.1122Z" fill="white" stroke="#263238" stroke-linecap="round" stroke-linejoin="round"/>
<path d="M130.187 32.2376C127.966 31.5836 125.588 31.7103 123.449 32.5967" stroke="#263238" stroke-linecap="round" stroke-linejoin="round"/>
<path d="M130.207 35.6362C130.371 34.4819 130.128 33.4927 129.664 33.4268C129.2 33.3609 128.691 34.2433 128.527 35.3976C128.363 36.552 128.607 37.5412 129.07 37.6071C129.534 37.673 130.043 36.7906 130.207 35.6362Z" fill="#263238"/>
<path d="M107.255 30.8891L110.009 31.5207C110.009 31.5207 111.272 25.392 112.752 25.1848C114.233 24.9775 118.674 26.448 118.881 24.5433C119.088 22.6386 117.193 18.4146 118.457 17.3586C119.72 16.3026 136.428 20.1121 137.484 20.7437C138.54 21.3753 139.813 22.8557 142.981 19.4706C146.149 16.0855 146.149 10.174 144.461 6.58164C142.774 2.98931 140.02 3.19656 138.54 5.52565C137.904 6.67433 137.041 7.68165 136.004 8.48636C136.004 8.48636 131.563 -1.65901 128.395 0.235846C126.581 1.24785 125.222 2.91397 124.595 4.89403C124.595 4.89403 111.913 0.235847 104.719 3.41368C97.5243 6.5915 96.6953 13.3419 96.6953 19.6877C96.6953 26.0335 99.0145 35.113 99.8633 35.5374C100.712 35.9618 104.719 35.3301 105.143 34.6886L107.255 30.8891Z" fill="#263238" stroke="#263238" stroke-linecap="round" stroke-linejoin="round"/>
<path d="M107.897 34.4814C107.897 34.4814 109.585 26.2408 106.417 23.9117C103.249 21.5826 101.344 27.0797 101.976 32.1523C102.608 37.225 105.361 37.225 105.361 37.225" fill="white"/>
<path d="M107.897 34.4814C107.897 34.4814 109.585 26.2408 106.417 23.9117C103.249 21.5826 101.344 27.0797 101.976 32.1523C102.608 37.225 105.361 37.225 105.361 37.225" stroke="#263238" stroke-linecap="round" stroke-linejoin="round"/>
<path d="M96.4774 37.6494L108.527 60.0521L101.126 73.1582L89.5 45.0512L96.4774 37.6494Z" fill="white" stroke="#263238" stroke-linecap="round" stroke-linejoin="round"/>
<path d="M121.94 76.4052V72.0036C121.94 72.0036 119.522 67.829 119.522 65.6282C119.522 63.4274 119.078 57.7329 119.078 57.7329C119.078 57.7329 119.966 56.6276 120.845 57.0717L121.723 57.506C121.723 57.506 123.697 54.4268 125.463 53.7656C127.23 53.1044 130.743 52.226 131.385 53.7656C131.961 54.8446 132.188 56.0753 132.036 57.2888C131.819 57.9501 134.898 61.4733 135.342 62.5688C135.786 63.6642 135.559 65.865 135.559 67.4046C135.559 68.9442 132.48 74.2241 131.385 75.7637C130.289 77.3032 127.862 81.9219 127.862 81.9219L121.94 76.4052Z" fill="white" stroke="#263238" stroke-linecap="round" stroke-linejoin="round"/>
<path d="M121.723 57.4864L123.953 58.9964C124.733 58.1595 125.292 57.1421 125.581 56.0356" stroke="#263238" stroke-linecap="round" stroke-linejoin="round"/>
<path d="M116 81.0238L121.507 74.6484L130.083 80.8067L125.682 89.1658L116 81.0238Z" fill="white" stroke="#263238" stroke-linecap="round" stroke-linejoin="round"/>
<path d="M61.649 63.97C61.649 63.97 54.9381 81.527 56.5566 85.1391C58.1751 88.7512 61.6983 89.7084 66.0703 98.6991C77.3901 121.99 88.927 134.652 91.5423 134.228C94.1576 133.803 124.702 96.4391 125.837 94.1396C126.972 91.8402 128.749 89.2644 127.742 87.7939C126.735 86.3234 117.972 79.119 115.781 79.2966C113.59 79.4743 93.7826 102.834 93.7826 102.834L78.1994 63.9404C78.1994 63.9404 75.4064 62.1837 69.7416 65.7464" fill="white"/>
<path d="M61.649 63.97C61.649 63.97 54.9381 81.527 56.5566 85.1391C58.1751 88.7512 61.6983 89.7084 66.0703 98.6991C77.3901 121.99 88.927 134.652 91.5423 134.228C94.1576 133.803 124.702 96.4391 125.837 94.1396C126.972 91.8402 128.749 89.2644 127.742 87.7939C126.735 86.3234 117.972 79.119 115.781 79.2966C113.59 79.4743 93.7826 102.834 93.7826 102.834L78.1994 63.9404C78.1994 63.9404 75.4064 62.1837 69.7416 65.7464" stroke="#263238" stroke-linecap="round" stroke-linejoin="round"/>
<path d="M93.7844 102.805C91.8672 105.925 90.1467 109.162 88.6328 112.496" stroke="#263238" stroke-linecap="round" stroke-linejoin="round"/>
<path d="M84.7028 109.111C84.2442 109.543 83.8187 110.008 83.4297 110.503" stroke="#263238" stroke-linecap="round" stroke-linejoin="round"/>
<path d="M90.3894 104.433C90.3894 104.433 88.4748 105.844 86.5898 107.394" stroke="#263238" stroke-linecap="round" stroke-linejoin="round"/>
<path d="M61.9061 93.7351L55.0273 90.5474" stroke="#263238" stroke-linecap="round" stroke-linejoin="round"/>
<path d="M111.871 131.553C111.871 131.553 144.182 131.553 150.647 132.422C157.111 133.29 157.969 139.33 157.555 142.755C157.14 146.179 139.455 228.27 140.324 229.128C141.192 229.987 151.308 237.527 155.828 238.603C160.348 239.678 161.858 241.84 162.075 243.133C162.111 244.579 161.966 246.025 161.641 247.435C157.647 248.013 153.616 248.303 149.581 248.304C142.899 248.304 129.122 246.143 126.319 246.143C123.517 246.143 117.921 247.653 117.052 245.501C116.184 243.35 119.214 233.007 120.506 230.421C121.928 227.201 122.869 223.789 123.299 220.296C123.517 217.71 126.102 185.626 125.885 175.5C125.668 165.374 126.744 161.072 126.744 161.072L112.927 164.733L111.871 131.553Z" fill="white" stroke="#263238" stroke-linecap="round" stroke-linejoin="round"/>
<path d="M155.821 238.652C151.301 237.577 141.176 230.037 140.317 229.178C140.317 229.178 137.939 228.319 137.08 229.178C136.221 230.037 135.787 233.491 135.787 233.491C131.483 233.002 127.229 232.136 123.076 230.905L120.638 230.145L120.5 230.471C119.207 233.057 116.187 243.399 117.046 245.551C117.904 247.702 123.51 246.192 126.313 246.192C129.116 246.192 142.893 248.354 149.574 248.354C153.627 248.339 157.674 248.032 161.683 247.436C162.008 246.025 162.154 244.58 162.118 243.133C161.851 241.84 160.341 239.689 155.821 238.652Z" fill="white" stroke="#263238" stroke-linecap="round" stroke-linejoin="round"/>
<path d="M117.043 245.501C117.912 247.653 123.507 246.143 126.31 246.143C129.113 246.143 142.89 248.304 149.572 248.304C153.624 248.306 157.67 248.016 161.681 247.436C161.887 246.458 162.035 245.47 162.125 244.475C154.935 244.974 147.716 244.832 140.551 244.051C132.794 243.314 125.091 242.091 117.487 240.389C116.954 242.689 116.718 244.682 117.043 245.501Z" fill="white" stroke="#263238" stroke-linecap="round" stroke-linejoin="round"/>
<path d="M142.931 215.953C147.698 195.228 157.192 145.311 157.508 142.794C157.932 139.35 157.074 133.32 150.6 132.461C144.126 131.603 111.824 131.593 111.824 131.593L112.91 164.772L126.726 161.111C126.726 161.111 125.651 165.414 125.868 175.54C126.046 183.76 124.368 210.515 123.618 217.207L142.931 215.953Z" fill="#757575" stroke="#263238" stroke-linecap="round" stroke-linejoin="round"/>
<path d="M126.734 161.072C126.734 161.072 130.83 149.87 139.663 145.992" stroke="#263238" stroke-linecap="round" stroke-linejoin="round"/>
<path d="M131.09 149.831C132.519 148.092 134.376 146.756 136.478 145.952" stroke="#263238" stroke-linecap="round" stroke-linejoin="round"/>
<path d="M122.432 212.756L122.215 221.371L143.759 219.871L145.693 211.463L122.432 212.756Z" fill="white" stroke="#263238" stroke-linecap="round" stroke-linejoin="round"/>
<path d="M129.044 114.49C129.044 114.49 123.616 115.23 121.642 117.204C119.669 119.177 111.773 134.228 111.773 135.708C111.773 137.188 119.669 143.11 122.136 143.357C124.603 143.603 137.186 129.046 139.16 127.319C141.134 125.592 139.407 115.97 138.667 113.009" fill="white"/>
<path d="M129.044 114.49C129.044 114.49 123.616 115.23 121.642 117.204C119.669 119.177 111.773 134.228 111.773 135.708C111.773 137.188 119.669 143.11 122.136 143.357C124.603 143.603 137.186 129.046 139.16 127.319C141.134 125.592 139.407 115.97 138.667 113.009" stroke="#263238" stroke-linecap="round" stroke-linejoin="round"/>
<path d="M120.409 226.01C120.409 226.01 123.616 171.483 123.616 156.68C123.616 141.876 124.85 134.721 120.409 132.007C115.968 129.293 67.8562 134.968 57.0003 137.929C46.1444 140.889 35.5352 147.551 35.5352 147.551C35.5352 147.551 36.5221 161.121 38.9893 164.575C41.4566 168.029 50.3387 169.51 54.7798 169.51H84.1401L95.983 166.302L103.385 230.698C103.385 230.698 101.904 246.981 103.138 247.968C104.372 248.955 121.889 249.942 128.057 249.695C134.225 249.449 144.835 249.942 145.328 248.215C145.822 246.488 144.588 242.047 144.588 242.047C144.588 242.047 133.485 237.606 130.031 235.385C126.925 233.186 123.959 230.797 121.149 228.23L120.409 226.01Z" fill="white" stroke="#263238" stroke-linecap="round" stroke-linejoin="round"/>
<path d="M130.03 235.386C126.924 233.187 123.958 230.797 121.148 228.231L120.408 226.01C120.408 226.01 118.927 225.517 117.2 227.737C115.956 229.627 115.039 231.712 114.486 233.905L103.246 232.267C102.91 236.382 102.14 247.169 103.137 247.969C104.371 248.956 121.888 249.943 128.056 249.696C134.224 249.449 144.834 249.943 145.327 248.215C145.821 246.488 144.587 242.047 144.587 242.047C144.587 242.047 133.484 237.606 130.03 235.386Z" fill="white" stroke="#263238" stroke-linecap="round" stroke-linejoin="round"/>
<path d="M145.328 248.215C145.499 247.136 145.462 246.034 145.22 244.968C132.005 247.929 107.806 245.264 102.645 244.633C102.645 246.409 102.812 247.712 103.138 247.969C104.372 248.955 121.889 249.942 128.057 249.696C134.225 249.449 144.835 249.942 145.328 248.215Z" fill="white" stroke="#263238" stroke-linecap="round" stroke-linejoin="round"/>
<path d="M95.9853 166.302L102.163 222.052C107.463 221.065 115.21 219.644 120.914 218.569C121.832 205.66 123.589 167.625 123.589 156.68C123.589 141.876 124.823 134.721 120.381 132.007C115.94 129.293 67.8289 134.968 56.973 137.929C46.117 140.889 35.5078 147.551 35.5078 147.551C35.5078 147.551 36.4947 161.121 38.962 164.575C41.4292 168.029 50.3114 169.51 54.7524 169.51H84.1128L95.9853 166.302Z" fill="#757575" stroke="#263238" stroke-linecap="round" stroke-linejoin="round"/>
<path d="M106.484 146.406C107.284 145.626 108.132 144.847 109.06 144.097" stroke="#263238" stroke-linecap="round" stroke-linejoin="round"/>
<path d="M96.2305 164.822C97.4589 159.255 99.9735 154.054 103.573 149.633" stroke="#263238" stroke-linecap="round" stroke-linejoin="round"/>
<path d="M99.4384 151.005C99.4384 151.005 94.5039 157.914 94.5039 162.601" stroke="#263238" stroke-linecap="round" stroke-linejoin="round"/>
<path d="M99.6836 218.608L101.164 226.503L121.889 222.556V214.414L99.6836 218.608Z" fill="white" stroke="#263238" stroke-linecap="round" stroke-linejoin="round"/>
</g>
<defs>
<clipPath id="clip0_835_35">
<rect width="425" height="250" fill="white"/>
</clipPath>
</defs>
</svg>
