<svg width="461" height="226" viewBox="0 0 461 226" fill="none" xmlns="http://www.w3.org/2000/svg">
<path d="M453.035 99.999H346.94C345.266 99.9976 343.648 100.599 342.381 101.693C341.115 102.788 340.286 104.301 340.046 105.957L324.176 214.38H450.339L459.973 107.556C460.057 106.595 459.939 105.627 459.629 104.714C459.318 103.801 458.821 102.963 458.168 102.252C457.516 101.542 456.722 100.974 455.839 100.586C454.955 100.198 454 99.9984 453.035 99.999Z" fill="#263238" stroke="#263238" stroke-linecap="round" stroke-linejoin="round"/>
<path d="M309.368 82.3009C309.368 82.3009 280.663 96.5383 270.81 100.47C260.956 104.402 258.534 106.165 257.657 108.574C256.781 110.984 218.442 171.186 214.068 176.662C209.695 182.138 200.259 193.955 201.574 202.048C202.889 210.142 213.411 217.162 223.494 216.943C233.578 216.724 239.935 214.753 241.031 211.905C242.127 209.058 269.955 159.336 269.955 159.336L278.723 214.72H390.682C390.682 214.72 399.45 138.977 399.45 127.806C399.45 116.635 401.642 103.504 397.039 100.656C392.435 97.8087 373.376 91.2486 359.346 86.6488C345.317 82.049 340.944 81.1729 337.667 81.1729C334.39 81.1729 309.368 82.3009 309.368 82.3009Z" fill="white" stroke="#263238" stroke-linecap="round" stroke-linejoin="round"/>
<path d="M306.333 82.6951C306.333 82.6951 302.607 89.7043 302.388 95.3993C302.168 101.094 301.292 111.597 298.004 117.949C294.715 124.301 292.304 127.806 294.058 127.138C295.811 126.47 305.884 115.321 306.98 112.9C308.076 110.48 309.83 115.091 309.83 115.091C309.83 115.091 306.542 124.498 306.103 125.813C305.665 127.127 319.902 145.296 319.902 145.296C319.902 145.296 332.178 135.669 335.027 133.479C337.877 131.288 337 129.536 337.219 126.689C337.438 123.841 338.315 119.69 339.839 117.281C341.362 114.872 345.768 124.312 348.826 128.693C351.884 133.074 354.964 134.607 354.525 131.321C354.087 128.036 352.553 121.684 351.457 110.513C350.361 99.3419 350.58 85.9916 347.73 81.8299C344.88 77.6682 329.931 76.8468 320.121 76.1459C317.441 75.8471 314.73 76.3018 312.294 77.4589C309.858 78.6159 307.794 80.4294 306.333 82.6951Z" fill="white" stroke="#263238" stroke-linecap="round" stroke-linejoin="round"/>
<path d="M262.075 119.986L269.966 159.369L259.773 133.183" stroke="#263238" stroke-linecap="round" stroke-linejoin="round"/>
<path d="M307.43 93.2528C307.43 93.2528 310.499 110.327 313.348 123.458C314.915 130.932 317.115 138.26 319.924 145.362C319.924 145.362 334.392 121.059 338.557 108.366C340.922 101.363 342.754 94.191 344.037 86.9116H307.43V93.2528Z" stroke="#263238" stroke-linecap="round" stroke-linejoin="round"/>
<path d="M323.419 99.123L315.539 108.98L321.019 119.493L315.627 132.537C316.816 136.875 318.25 141.142 319.923 145.318C319.923 145.318 324.439 137.739 329.141 128.89L325.184 119.767L330.007 108.815L323.419 99.123Z" fill="white" stroke="#263238" stroke-linecap="round" stroke-linejoin="round"/>
<path d="M307.43 86.9009V93.253C307.43 93.253 309.545 105.037 311.89 116.548L322.982 104.851L334.677 117.796C336.14 114.723 337.431 111.571 338.546 108.356C340.911 101.352 342.743 94.1803 344.026 86.9009H307.43Z" fill="white" stroke="#263238" stroke-linecap="round" stroke-linejoin="round"/>
<path d="M211.91 183.146C211.91 183.146 232.373 175.676 243.41 193.846" stroke="#263238" stroke-linecap="round" stroke-linejoin="round"/>
<path d="M243.769 188.238C243.769 188.238 232.338 190.823 226.233 200.559C220.128 210.295 232.546 211.38 235.977 211.38C239.407 211.38 242.651 209.08 242.838 207.886C243.024 206.692 247.518 195.149 247.342 192.455C247.322 191.449 246.956 190.481 246.305 189.713C245.654 188.945 244.759 188.424 243.769 188.238Z" fill="white" stroke="#263238" stroke-linecap="round" stroke-linejoin="round"/>
<path d="M238.511 192.269C238.511 192.269 232.187 197.744 232.614 199.935C233.042 202.125 242.424 210.558 244.232 209.343C244.559 209.177 244.849 208.948 245.087 208.67C245.324 208.392 245.505 208.07 245.618 207.722C245.731 207.374 245.774 207.007 245.745 206.643C245.716 206.278 245.616 205.923 245.449 205.597C244.934 204.776 238.511 192.269 238.511 192.269Z" fill="white" stroke="#263238" stroke-linecap="round" stroke-linejoin="round"/>
<path d="M232.646 199.88C232.646 199.88 228.93 203.834 230.147 205.641C231.364 207.448 239.858 212.058 242.061 210.667C244.264 209.277 242.839 207.853 242.839 207.853L232.646 199.88Z" fill="white" stroke="#263238" stroke-linecap="round" stroke-linejoin="round"/>
<path d="M254.415 192.06L246.809 190.746L248.595 201.687L256.366 201.928L254.415 192.06Z" fill="white" stroke="#263238" stroke-linecap="round" stroke-linejoin="round"/>
<path d="M240.725 174.855L249.636 206.057L253.965 209.989V204.436L244.539 173.771C244.462 173.516 244.335 173.279 244.164 173.074C243.993 172.87 243.782 172.702 243.544 172.581C243.307 172.461 243.047 172.389 242.781 172.372C242.515 172.354 242.248 172.39 241.996 172.478C241.524 172.642 241.13 172.977 240.894 173.418C240.659 173.858 240.598 174.372 240.725 174.855Z" fill="#263238" stroke="#263238" stroke-linecap="round" stroke-linejoin="round"/>
<path d="M243.772 188.238C243.772 188.238 238.511 191.316 239.037 193.649C239.563 195.981 245.24 206.889 247.29 207.032C249.34 207.174 250.578 205.937 250.282 203.571C249.986 201.205 248.09 192.619 246.808 190.746C245.525 188.874 245.383 188.129 243.772 188.238Z" fill="white" stroke="#263238" stroke-linecap="round" stroke-linejoin="round"/>
<path d="M254.412 192.061C254.412 192.061 260.012 192.761 260.988 194.47C261.963 196.178 258.051 202.991 256.801 204.546C255.552 206.101 253.316 206.035 253.25 202.092C253.355 198.722 253.744 195.366 254.412 192.061Z" fill="white" stroke="#263238" stroke-linecap="round" stroke-linejoin="round"/>
<path d="M224.12 205.235H285.574C287.292 205.238 288.937 205.921 290.152 207.134C291.366 208.348 292.049 209.992 292.052 211.708C292.052 213.16 291.475 214.553 290.447 215.58C289.419 216.607 288.025 217.184 286.572 217.184H224.975C223.638 217.184 222.356 216.653 221.41 215.708C220.465 214.763 219.934 213.482 219.934 212.146V209.408C219.934 208.859 220.042 208.316 220.253 207.809C220.463 207.302 220.772 206.841 221.161 206.454C221.549 206.066 222.011 205.759 222.519 205.55C223.027 205.341 223.571 205.234 224.12 205.235Z" fill="white" stroke="#263238" stroke-linecap="round" stroke-linejoin="round"/>
<path d="M333.479 191.119C333.479 191.119 317.488 189.366 313.542 188.052C309.596 186.738 303.239 185.643 301.047 187.395C298.855 189.147 288.125 201.632 287.895 203.155C287.665 204.677 285.484 209.726 286.58 211.04C287.498 211.956 288.627 212.632 289.868 213.011C289.868 213.011 304.116 216.954 305.64 217.173C307.163 217.392 321.85 216.735 321.85 216.735L329.522 213.888L340.252 213.669C340.252 213.669 340.471 217.173 340.69 208.631C340.91 200.088 333.479 191.119 333.479 191.119Z" fill="white" stroke="#263238" stroke-linecap="round" stroke-linejoin="round"/>
<path d="M289.902 213.022C289.902 213.022 290.122 207.985 291.218 205.794C292.314 203.604 304.797 192.444 304.797 192.444" stroke="#263238" stroke-linecap="round" stroke-linejoin="round"/>
<path d="M294.023 214.315C294.023 214.315 296.215 208.839 297.092 208.401C297.969 207.963 308.261 201.392 308.261 201.392" stroke="#263238" stroke-linecap="round" stroke-linejoin="round"/>
<path d="M301.508 215.848C301.508 215.848 301.946 213.657 303.042 213.219C304.138 212.781 313.345 208.62 313.345 208.62" stroke="#263238" stroke-linecap="round" stroke-linejoin="round"/>
<path d="M311.372 216.943L315.537 215.848L315.099 213.876L310.715 214.972" stroke="#263238" stroke-linecap="round" stroke-linejoin="round"/>
<path d="M383.667 120.611C383.667 120.611 372.061 144.913 372.707 153.466C373.354 162.019 376.225 176.224 376.225 176.224C376.225 176.224 357.823 183.441 351.466 186.081C345.109 188.72 333.48 191.119 333.48 191.119L339.388 214.326L338.522 216.735H402.267C402.267 216.735 407.089 215.859 407.966 214.764C408.843 213.668 409.72 213.23 410.158 209.726C410.597 206.221 413.446 175.578 412.789 167.013C412.131 158.449 403.144 114.039 402.048 109.44C400.952 104.84 398.99 101.773 397.017 100.678C395.044 99.583 386.495 98.7178 386.495 98.7178" fill="white"/>
<path d="M383.667 120.611C383.667 120.611 372.061 144.913 372.707 153.466C373.354 162.019 376.225 176.224 376.225 176.224C376.225 176.224 357.823 183.441 351.466 186.081C345.109 188.72 333.48 191.119 333.48 191.119L339.388 214.326L338.522 216.735H402.267C402.267 216.735 407.089 215.859 407.966 214.764C408.843 213.668 409.72 213.23 410.158 209.726C410.597 206.221 413.446 175.578 412.789 167.013C412.131 158.449 403.144 114.039 402.048 109.44C400.952 104.84 398.99 101.773 397.017 100.678C395.044 99.583 386.495 98.7178 386.495 98.7178" stroke="#263238" stroke-linecap="round" stroke-linejoin="round"/>
<path d="M377.758 176.662C377.758 176.662 394.626 177.538 402.966 182.784" stroke="#263238" stroke-linecap="round" stroke-linejoin="round"/>
<path d="M380.816 174.472C380.816 174.472 392.653 173.815 399.01 175.786" stroke="#263238" stroke-linecap="round" stroke-linejoin="round"/>
<path d="M377.541 119.932C377.541 119.932 371.623 133.731 371.404 138.988C371.185 144.245 370.746 147.311 370.746 147.311" stroke="#263238" stroke-linecap="round" stroke-linejoin="round"/>
<path d="M350.59 83.3965C350.59 83.3965 363.95 102.409 353.209 155.427" stroke="#263238" stroke-width="2" stroke-linecap="round" stroke-linejoin="round"/>
<path d="M359.566 156.96C359.566 155.66 359.181 154.39 358.458 153.309C357.735 152.228 356.708 151.386 355.507 150.889C354.305 150.392 352.983 150.261 351.707 150.515C350.432 150.768 349.26 151.394 348.34 152.313C347.421 153.232 346.794 154.403 346.54 155.678C346.287 156.952 346.417 158.274 346.915 159.474C347.412 160.675 348.255 161.701 349.337 162.423C350.418 163.146 351.69 163.531 352.99 163.531C354.734 163.531 356.407 162.839 357.64 161.606C358.874 160.374 359.566 158.703 359.566 156.96Z" fill="white" stroke="#263238" stroke-linecap="round" stroke-linejoin="round"/>
<path d="M304.982 85.3677C304.982 85.3677 298.198 89.7484 297.102 107.479" stroke="#263238" stroke-width="2" stroke-linecap="round" stroke-linejoin="round"/>
<path d="M306.53 134.344C304.875 146.304 302.617 159.15 302.145 161.965C301.049 167.988 293.892 170.091 289.289 168.12" stroke="#263238" stroke-width="2" stroke-linecap="round" stroke-linejoin="round"/>
<path d="M289.367 135.133C287.865 128.43 286.945 122.615 287.274 119.954C288.808 107.699 297.138 107.479 297.138 107.479C297.138 107.479 307.002 108.794 307.649 119.307C307.717 124.342 307.35 129.373 306.553 134.344" stroke="#263238" stroke-width="2" stroke-linecap="round" stroke-linejoin="round"/>
<path d="M307.868 167.244C307.868 167.244 303.265 169.872 300.196 168.12C298.124 166.937 292.524 149.107 289.367 135.133" stroke="#263238" stroke-width="2" stroke-linecap="round" stroke-linejoin="round"/>
<path d="M309.47 164.87L307.658 165.65C306.786 166.026 306.383 167.038 306.759 167.91L306.781 167.96C307.157 168.832 308.17 169.235 309.042 168.859L310.854 168.078C311.727 167.702 312.129 166.691 311.753 165.819L311.731 165.768C311.355 164.896 310.343 164.494 309.47 164.87Z" stroke="#263238" stroke-linecap="round" stroke-linejoin="round"/>
<path d="M289.858 166.058L288.167 165.043C287.352 164.554 286.295 164.817 285.805 165.631L285.777 165.678C285.288 166.492 285.552 167.549 286.366 168.038L288.058 169.053C288.872 169.541 289.929 169.278 290.419 168.464L290.447 168.417C290.936 167.603 290.672 166.547 289.858 166.058Z" stroke="#263238" stroke-linecap="round" stroke-linejoin="round"/>
<path d="M297.135 32.3936C297.135 32.3936 293.628 40.706 294.285 45.9629C294.943 51.2198 301.957 56.9148 301.957 56.9148C301.957 56.9148 304.369 33.4887 304.369 32.6126C304.369 31.7365 299.974 29.7651 297.135 32.3936Z" fill="#263238" stroke="#263238" stroke-linecap="round" stroke-linejoin="round"/>
<path d="M294.617 62.1716L299.275 58.9189" stroke="#263238" stroke-width="2" stroke-linecap="round" stroke-linejoin="round"/>
<path d="M299.757 33.9266C299.757 33.9266 298.88 57.1336 299.318 61.5034C299.756 65.8732 301.51 79.8916 303.045 84.2723C304.579 88.653 309.621 102.66 313.566 104.194C317.512 105.727 325.392 106.822 328.023 105.07C330.653 103.318 340.287 96.7574 342.918 90.4053C344.478 86.7014 345.511 82.7975 345.987 78.8073C348.174 77.6413 350.063 75.9875 351.508 73.9743C352.952 71.9611 353.913 69.6426 354.317 67.1984C355.632 58.875 352.125 56.4765 352.125 56.4765L352.344 42.02C352.344 42.02 349.932 31.9553 343.576 26.4794C337.219 21.0035 329.777 20.5654 322.104 24.7271C314.432 28.8888 299.757 33.9266 299.757 33.9266Z" fill="white" stroke="#263238" stroke-linecap="round" stroke-linejoin="round"/>
<path d="M340.946 32.6125C340.946 32.6125 341.165 26.9176 335.696 28.8889C330.226 30.8602 328.9 34.5839 320.79 37.8694C312.679 41.155 301.949 37.4314 298.233 35.241C294.518 33.0506 291.877 29.9841 296.918 24.2891C301.96 18.5942 313.786 12.9102 326.511 12.9102C339.236 12.9102 349.078 23.413 353.243 27.7937C357.408 32.1745 358.065 37.6504 356.531 41.5821C354.997 45.5138 352.147 56.4766 352.147 56.4766C352.147 56.4766 350.393 56.2576 349.736 58.8751C349.078 61.4926 349.297 64.351 346.448 64.57C343.598 64.7891 343.817 57.1337 343.817 57.1337C343.817 57.1337 336.814 54.9434 335.937 49.9055C335.06 44.8677 340.946 37.4313 340.946 32.6125Z" fill="#263238" stroke="#263238" stroke-linecap="round" stroke-linejoin="round"/>
<path d="M314.848 65.7417L294.582 62.1714L295.755 71.2504C295.827 71.815 296.079 72.3414 296.474 72.7516C296.869 73.1619 297.385 73.4343 297.947 73.5285L310.266 75.4669C310.943 75.5762 311.637 75.4179 312.199 75.0254C312.762 74.6329 313.149 74.0372 313.28 73.3642L314.848 65.7417Z" stroke="#263238" stroke-width="2" stroke-linecap="round" stroke-linejoin="round"/>
<path d="M318.543 66.1253L342.042 65.4463L339.74 73.9449C339.542 74.5172 339.164 75.01 338.662 75.3496C338.16 75.6891 337.562 75.8572 336.956 75.8287L322.708 76.0258C321.969 76.0767 321.237 75.86 320.645 75.4156C320.054 74.9711 319.642 74.3285 319.486 73.6054L318.543 66.1253Z" stroke="#263238" stroke-width="2" stroke-linecap="round" stroke-linejoin="round"/>
<path d="M314.879 65.7417L318.54 66.125" stroke="#263238" stroke-width="2" stroke-linecap="round" stroke-linejoin="round"/>
<path d="M342.039 65.4461L349.711 58.875" stroke="#263238" stroke-width="2" stroke-linecap="round" stroke-linejoin="round"/>
<path d="M321.664 63.4747C321.664 63.4747 328.24 58.4478 334.378 61.5034" stroke="#263238" stroke-width="2" stroke-linecap="round" stroke-linejoin="round"/>
<path d="M311.811 62.3797C311.811 62.3797 306.77 56.9038 301.07 60.6274" stroke="#263238" stroke-width="2" stroke-linecap="round" stroke-linejoin="round"/>
<path d="M313.128 81.4248C313.128 81.4248 312.032 86.0246 313.128 86.9007C314.994 87.9299 317.147 88.3149 319.255 87.9959" stroke="#263238" stroke-linecap="round" stroke-linejoin="round"/>
<path d="M309.84 90.3618C309.84 90.3618 314.224 93.6474 318.389 93.8664C322.554 94.0855 327.365 91.0189 327.365 91.0189" stroke="#263238" stroke-linecap="round" stroke-linejoin="round"/>
<path d="M326.051 68.0745C326.051 68.0745 328.681 71.141 333.065 67.8555" stroke="#263238" stroke-linecap="round" stroke-linejoin="round"/>
<path d="M304.469 66.7275C304.469 66.7275 306.661 70.1226 311.439 67.4613" stroke="#263238" stroke-linecap="round" stroke-linejoin="round"/>
<path d="M168.532 32.5903C168.532 32.5903 169.924 53.4536 168.871 55.1949L165.792 60.408C165.792 60.408 167.183 75.3682 164.4 77.0986C162.243 78.2529 159.876 78.9641 157.44 79.1904C157.44 79.1904 154.656 90.3175 153.604 91.7084C152.552 93.0993 146.293 97.6224 144.211 98.2795C142.128 98.9366 135.508 99.3747 119.846 89.9342C104.184 80.4937 98.2655 77.4162 98.6162 72.2032C98.9669 66.9901 99.7122 61.0761 99.7122 61.0761C99.7122 61.0761 101.455 36.0292 104.59 28.3848C107.724 20.7404 147.4 16.5568 156.103 18.6486C164.805 20.7404 168.532 32.5903 168.532 32.5903Z" fill="white" stroke="#263238" stroke-linecap="round" stroke-linejoin="round"/>
<path d="M128.152 67.0117L130.596 68.7531C130.596 68.7531 128.503 77.0984 129.5 80.9315" stroke="#263238" stroke-linecap="round" stroke-linejoin="round"/>
<path d="M162.95 60.0246C162.6 61.6236 161.756 62.7845 161.076 62.6312C160.397 62.4779 160.123 61.076 160.484 59.477C160.846 57.8781 161.679 56.7172 162.359 56.8705C163.038 57.0239 163.312 58.4366 162.95 60.0246Z" fill="#263238"/>
<path d="M159.402 53.6396C159.402 53.6396 163.195 49.8503 166.362 53.4315" stroke="#263238" stroke-linecap="round" stroke-linejoin="round"/>
<path d="M154.613 29.8085C154.613 29.8085 159.129 38.1538 158.789 39.8952C158.449 41.6365 144.168 45.8092 144.168 45.8092C144.168 45.8092 142.776 54.1545 140.683 55.1949L138.6 56.2353C136.93 53.9697 135.529 51.5184 134.424 48.9304C131.991 43.7174 128.506 42.3593 124.681 47.5395C120.855 52.7198 123.979 64.9311 126.073 65.9715L128.155 67.0119C128.155 67.0119 126.412 68.7533 119.803 69.8047C113.194 70.856 108.317 72.2359 103.451 70.8451C98.5842 69.4542 91.6135 56.2353 89.2023 39.1942C86.791 22.1531 94.4193 7.55433 104.547 3.05312C114.674 -1.44809 137.614 2.70266 139.345 3.74309C141.077 4.78352 152.925 -0.769085 159.885 2.70265C166.845 6.17439 166.461 10.0076 168.237 12.4389C170.012 14.8702 179.021 11.7489 179.723 20.4447C180.424 29.1404 176.939 34.3535 172.412 35.0435C167.886 35.7334 154.613 29.8085 154.613 29.8085Z" fill="#263238" stroke="#263238" stroke-linecap="round" stroke-linejoin="round"/>
<path d="M72.202 84.4035C72.202 84.4035 38.85 102.178 32.4931 105.694C26.1361 109.209 25.1826 112.364 24.8209 115.551C24.4592 118.738 24.8209 226 24.8209 226H204.974C204.974 226 177.65 144.025 176.752 134.87C175.853 125.714 173.902 109.472 171.359 107.567C168.817 105.661 132.911 89.7919 132.911 89.7919C132.911 89.7919 124.329 80.5923 104.009 80.5923C83.6884 80.5923 72.202 84.4035 72.202 84.4035Z" fill="white" stroke="#263238" stroke-linecap="round" stroke-linejoin="round"/>
<path d="M92.8516 149.709C93.7941 150.082 94.7477 150.421 95.7012 150.739" stroke="#263238" stroke-linecap="round" stroke-linejoin="round"/>
<path d="M57.2852 120.271C57.2852 120.271 70.4374 138.604 88.4013 147.65" stroke="#263238" stroke-linecap="round" stroke-linejoin="round"/>
<path d="M68.7031 141.528C68.7031 141.528 76.0026 148.833 91.2483 152.962" stroke="#263238" stroke-linecap="round" stroke-linejoin="round"/>
<path d="M159.213 115.222C154.138 120.983 146.992 130.193 144.625 138.67" stroke="#263238" stroke-linecap="round" stroke-linejoin="round"/>
<path d="M164.63 109.472C164.63 109.472 163.621 110.447 162.043 112.122" stroke="#263238" stroke-linecap="round" stroke-linejoin="round"/>
<path d="M146.523 128.518C146.523 128.518 141.755 137.717 140.812 143.434" stroke="#263238" stroke-linecap="round" stroke-linejoin="round"/>
<path d="M70.293 85.9804C70.293 85.9804 88.7171 85.3452 106.188 85.6628C123.658 85.9804 135.101 91.3797 135.101 91.3797C135.101 91.3797 124.612 78.6865 119.855 75.8281C115.098 72.9696 100.477 68.1617 88.4102 72.0168C80.9764 74.5122 74.5964 79.4295 70.293 85.9804Z" fill="white" stroke="#263238" stroke-linecap="round" stroke-linejoin="round"/>
<path d="M17.9041 225.88L1.11303 161.549C0.950059 160.767 0.963472 159.96 1.15229 159.184C1.34111 158.409 1.70059 157.686 2.20455 157.067C2.7085 156.448 3.34426 155.949 4.06552 155.606C4.78678 155.264 5.57539 155.086 6.37394 155.087H139.968C141.196 155.088 142.386 155.508 143.343 156.276C144.299 157.045 144.965 158.117 145.229 159.314L160.058 225.945" fill="#263238"/>
<path d="M17.9041 225.88L1.11303 161.549C0.950059 160.767 0.963472 159.96 1.15229 159.184C1.34111 158.409 1.70059 157.686 2.20455 157.067C2.7085 156.448 3.34426 155.949 4.06552 155.606C4.78678 155.264 5.57539 155.086 6.37394 155.087H139.968C141.196 155.088 142.386 155.508 143.343 156.276C144.299 157.045 144.965 158.117 145.229 159.314L160.058 225.945" stroke="#263238" stroke-linecap="round" stroke-linejoin="round"/>
</svg>
