<svg width="168" height="149" viewBox="0 0 168 149" fill="none" xmlns="http://www.w3.org/2000/svg">
<path d="M23.3255 165.831C22.4805 163.987 19.6392 157.729 19.1689 156.625C16.3581 150.111 12.9992 144.097 10.6783 137.295C2.78359 113.77 4.44658 89.546 13.2475 66.5298C28.5027 26.9194 71.9271 -2.1744 114.733 7.89604C133.057 12.1898 153.324 27.9552 165.867 41.717C174.047 50.719 180.439 60.0511 186.609 70.5364C187.186 71.5175 188.099 72.6617 188.853 73.8408C189.396 74.6628 189.939 75.4841 190.11 76.2849C190.417 77.7253 191.848 78.6254 193.289 78.3182C194.73 78.0103 195.63 76.5795 195.323 75.1391C194.81 72.7376 192.411 69.8846 191.177 67.7878C184.824 56.9909 178.203 47.3722 169.795 38.083C156.62 23.552 135.221 7.19223 115.906 2.6414C70.5749 -8.04631 24.3758 22.561 8.19504 64.5771C-0.963271 88.8257 -2.68073 114.283 5.62018 139.009C7.9767 145.972 11.3679 152.146 14.3041 158.767C14.9393 160.255 17.7954 167.764 19.5098 169.759C20.3438 170.769 21.2738 171.123 21.9742 171.192C23.0032 171.307 24.0007 170.96 24.7825 169.839C25.6272 168.622 25.3049 166.95 24.0872 166.104C23.8028 166.032 23.6094 165.905 23.3255 165.831ZM20.6745 166.431C20.586 166.483 20.6124 166.528 20.5675 166.554L20.5034 166.65C20.5226 166.58 20.586 166.483 20.6745 166.431ZM34.4697 159.455C34.5033 159.615 34.5184 159.846 34.624 160.025C35.083 161.316 35.8011 161.615 35.8968 161.678C36.7898 162.174 37.5713 162.074 38.2051 161.822C38.7471 161.622 39.3459 161.211 39.6815 160.352C39.7449 160.254 40.0527 159.654 39.7942 158.604C39.6847 158.007 38.8045 154.983 38.6501 154.412C37.5778 150.958 36.3028 147.565 35.1869 144.137C31.9783 134.192 31.4836 123.551 29.3055 113.421C23.3052 85.3571 39.118 56.2918 59.4988 38.0533C68.2491 30.2614 81.448 24.4167 93.28 24.723C96.8841 24.8243 100.346 25.9105 103.958 26.128C112.459 26.5919 120.174 27.7584 128.092 30.908C135.321 33.8019 144.402 42.3948 149.68 47.9972C155.858 54.514 161.32 62.4716 166.46 69.7783C168.206 72.235 169.944 75.596 172.024 78.5175C173.593 80.7774 175.397 82.7186 177.34 83.9785C178.602 84.7968 180.247 84.4296 181.021 83.1935C181.841 81.9309 181.473 80.2845 180.236 79.5119C178.39 78.314 176.855 76.2152 175.408 74.0622C173.727 71.5091 172.266 68.8241 170.801 66.7425C165.459 59.1954 159.892 51.0595 153.538 44.346C147.785 38.2411 137.874 29.0559 130.026 25.9255C121.585 22.6035 113.348 21.2638 104.243 20.7946C100.631 20.5771 97.0989 19.4737 93.4505 19.3968C80.3142 19.0188 65.6445 25.4268 55.9546 34.072C34.1694 53.4976 17.6643 84.6518 24.0225 114.547C26.2593 124.883 26.7447 135.71 30.0574 145.833C31.1734 149.261 32.4504 152.655 33.495 156.064C33.6599 156.447 34.2461 158.564 34.4697 159.455ZM39.4373 157.792L39.3852 157.704C39.4373 157.792 39.4901 157.882 39.5686 158.015L39.5165 157.927C39.4901 157.882 39.4637 157.837 39.4373 157.792ZM56.4533 148.022C55.7879 145.77 53.9478 139.885 53.9314 139.654C52.4218 132.494 51.6667 125.19 51.8186 117.892C52.0821 105.785 53.7909 89.7025 58.9792 75.9595C62.2954 67.1007 67.0495 59.2569 73.9027 54.2646C79.6487 50.0429 86.445 47.3042 93.3295 45.8361C112.588 41.7126 122.984 49.8901 137.438 61.3883C143.206 65.9828 147.912 72.0424 151.614 78.3328C153.058 80.7874 154.367 83.32 156.124 85.5905C156.327 85.8321 157.279 87.5539 157.982 88.3403C158.439 88.912 158.951 89.2719 159.287 89.4351C160.339 89.8968 161.238 89.7894 161.996 89.3434C163.245 88.6085 163.711 86.9511 162.951 85.6584C162.714 85.2557 162.344 84.9328 161.956 84.6812C161.615 84.1015 160.606 82.5923 160.43 82.3956C158.851 80.3224 157.663 77.8962 156.325 75.6212C152.282 68.7498 147.144 62.1633 140.839 57.1633C124.939 44.536 113.408 36.0644 92.2742 40.5715C84.6339 42.184 77.1673 45.3153 70.8233 49.9494C63.2201 55.5039 57.7831 64.2294 54.0937 74.0881C48.7146 88.4251 46.822 105.217 46.5716 117.857C46.4261 125.57 47.2121 133.337 48.8166 140.861C48.8582 141.137 51.1854 149.379 51.9254 151.045C52.6122 152.623 53.863 152.909 54.1646 152.911C54.8214 153.006 55.4162 152.896 55.9523 152.581C56.1754 152.449 57.513 151.662 57.2482 149.475C57.0477 148.932 56.8043 148.416 56.4533 148.022ZM159.552 84.4745L159.418 84.5538C159.507 84.501 159.666 84.4661 159.756 84.4133L159.641 84.4225C159.666 84.4661 159.621 84.4925 159.552 84.4745ZM159.329 84.6058C159.284 84.6323 159.239 84.6587 159.239 84.6587L159.329 84.6058ZM74.4251 135.284C71.4889 128.662 70.8819 120.791 70.3756 113.701C69.7833 105.04 72.3626 92.1704 77.6707 81.8996C81.0746 75.332 85.5437 69.7588 91.1043 67.2672C93.2439 66.3087 95.7916 65.2309 98.0861 64.8407C101.642 64.2503 106.231 65.5143 110.803 67.5698C118.081 70.8545 125.343 76.2534 128.787 80.473C132.583 85.0868 137.556 88.9472 141.576 93.4289C142.006 93.9578 143.502 95.4791 144.459 95.878C145.529 96.2684 146.426 96.1618 147.23 95.6887C148.48 94.9537 148.947 93.2976 148.185 92.0037C147.791 91.3342 147.111 90.8938 146.429 90.755C146.13 90.4492 145.68 89.9937 145.575 89.8154C141.582 85.3765 136.662 81.6059 132.935 77.0101C129.088 72.3078 121.086 66.2638 112.994 62.6158C107.343 60.055 101.566 58.7101 97.1377 59.4528C94.4075 59.9181 91.4051 61.1443 88.8825 62.2678C82.3316 65.2212 76.853 71.6284 72.8791 79.3722C67.1021 90.5801 64.3449 104.576 65.0103 113.975C65.5389 121.713 66.3087 130.269 69.5398 137.497C69.838 138.103 70.2471 139.004 70.7215 139.505C71.2685 140.024 71.9405 140.35 72.5701 140.399C73.2698 140.468 74.0534 140.367 74.849 139.78C76.0189 138.911 76.2986 137.244 75.4045 136.03C75.202 135.788 74.8324 135.465 74.4251 135.284Z" fill="#EDE4DA"/>
</svg>
