<svg width="151" height="153" viewBox="0 0 151 153" fill="none" xmlns="http://www.w3.org/2000/svg">
<path d="M140.709 32.8871C133.556 22.4673 126.996 18.9131 117.094 12.131C105.013 3.85465 99.4451 1.37122 84.4539 0.875128C82.543 0.800524 80.6883 0.600925 78.9192 0.655558C77.1142 0.717734 75.4414 1.06464 73.7903 1.94766C60.939 2.10485 47.2076 9.28996 37.5348 16.6257C8.07619 39.0105 -8.17219 74.3749 5.36167 110.726C16.1421 139.637 49.1366 154.221 78.7035 153.857C110.442 153.489 143.173 136.688 152.728 106.024C156.489 93.9914 155.223 81.2729 153.253 69.0126C151.222 56.226 148.29 43.8914 140.709 32.8871ZM148.587 69.6141C150.437 81.2401 151.76 93.2194 148.228 104.599C139.262 133.361 108.385 148.898 78.5747 149.223C50.8977 149.551 19.88 136.224 9.81286 109.198C-2.98674 74.843 12.6065 41.4319 40.5244 20.2962C49.2975 13.644 61.5849 6.96244 73.2838 6.56808C74.0207 6.91057 74.9181 6.84313 75.6509 6.33881C77.0425 5.34386 78.5592 5.21421 80.1491 5.26468C81.5333 5.27063 82.9461 5.42761 84.4222 5.49651C98.2134 5.91706 103.325 8.28235 114.452 15.9054C123.807 22.3143 130.075 25.5698 136.801 35.4049C143.955 45.8247 146.645 57.5049 148.587 69.6141ZM58.9132 42.6663C59.5394 41.797 59.5042 40.5712 58.6752 39.7438C57.7491 38.8162 56.2729 38.7473 55.3348 39.6307C54.6284 40.283 54.2406 41.1535 54.1882 42.1236C54.1297 42.8647 54.2854 43.6853 54.3298 44.3319C55.1169 52.4355 56.46 60.565 57.677 68.6388C58.7132 75.3566 58.111 82.7996 60.7581 89.2565C61.2212 90.451 62.5978 91.0359 63.8197 90.608C65.036 90.1413 65.6131 88.8164 65.1573 87.6605C62.6568 81.5638 63.3623 74.45 62.3881 68.0682C61.1492 60.0757 59.8257 52.0589 59.0526 44.0291L58.9132 42.6663ZM84.7639 32.7115C84.2101 37.4952 86.7133 43.8215 87.8037 48.5293C90.5129 60.5143 93.1308 72.8617 95.4103 84.8782C95.644 86.1098 96.8786 86.9858 98.1807 86.775C99.4467 86.57 100.328 85.3895 100.088 84.1209C97.7939 72.0289 95.1693 59.6463 92.4529 47.6227C91.4854 43.3568 88.987 37.6835 89.5049 33.3293C89.6611 32.0726 88.7306 30.9157 87.4336 30.7417C86.097 30.5741 84.9205 31.4564 84.7639 32.7115ZM36.9124 101.656C36.9096 104.349 38.6856 107.254 41.6499 109.967C47.422 115.187 57.6902 119.948 61.7251 121.642C83.6199 130.829 109.631 122.348 122.791 104.025C125.385 100.412 128.901 96.0344 129.833 91.5752C130.074 90.3444 129.252 89.1302 127.972 88.8376C126.698 88.582 125.463 89.3597 125.184 90.5965C124.382 94.4968 121.136 98.2151 118.893 101.385C106.983 117.968 83.4131 125.784 63.5709 117.419C60.3112 116.063 52.7833 112.627 47.3151 108.588C45.6141 107.324 44.1048 106.031 43.061 104.699C42.242 103.718 41.6987 102.728 41.6682 101.733C41.6657 100.464 40.6336 99.3999 39.3253 99.3816C37.9875 99.4045 36.9154 100.426 36.9124 101.656ZM130.954 94.7784C131.467 95.389 132.325 95.75 133.206 95.6073C134.51 95.3963 135.353 94.2202 135.113 92.9516C135.091 92.8392 134.964 92.168 134.158 91.4527C132.769 90.1762 125.873 84.447 125.116 83.9918C124.002 83.3265 122.558 83.6362 121.854 84.7119C121.188 85.7814 121.533 87.1888 122.654 87.891C123.367 88.3135 129.658 93.5649 130.947 94.7415L130.954 94.7784ZM31.2967 104.758C30.4036 105.672 30.4432 107.127 31.3999 108.01C32.3588 108.894 33.8568 108.882 34.7499 107.968L34.8445 107.838C34.9767 107.701 35.2413 107.428 35.4184 107.322C35.7351 107.116 35.9924 106.805 36.1345 106.514C36.2976 106.333 36.4298 106.196 36.562 106.059C39.4023 102.908 42.0678 100.091 44.5751 96.6465C45.3261 95.6013 45.0571 94.1834 43.9661 93.4364C42.8771 92.6908 41.4197 92.9268 40.6701 93.97C38.295 97.2775 35.7293 100.002 32.9766 102.986C32.4236 103.614 31.2967 104.758 31.2967 104.758Z" fill="#EDE4DA"/>
</svg>
