<svg width="312" height="489" viewBox="0 0 312 489" fill="none" xmlns="http://www.w3.org/2000/svg">
<path d="M153.309 13.0374C153.309 13.0374 150.513 1.67816 132.489 1.04204C114.464 0.392935 114.256 7.44218 109.497 9.68807C107.065 10.8305 101.967 17.5422 102.5 21.1512L112.956 16.257C112.956 16.257 89.1185 30.667 88.4682 54.4501C87.818 78.2331 97.4934 97.9009 116.818 97.9009C136.143 97.9009 144.726 92.1109 144.505 78.1942C144.297 64.2645 141.501 40.2737 145.793 26.5517C150.084 12.8427 153.309 13.0504 153.309 13.0504V13.0374Z" fill="#263238" stroke="#263238" stroke-miterlimit="10"/>
<path d="M210.49 171.873L217.551 185.711C217.551 185.711 228.15 195.201 230.868 201.718C233.586 208.222 244.106 225.956 247.982 227.215C249.269 227.63 254.77 228.565 256.682 229.11C258.581 229.656 260.492 231.551 261.845 231.824C263.197 232.096 265.655 232.641 267.281 231.824C268.906 231.006 270.545 232.369 269.999 233.992C269.452 235.614 263.743 236.705 263.743 236.705L255.59 235.082C255.59 235.082 262.378 239.691 261.299 242.131C260.206 244.572 244.718 247.012 243.365 247.012C242.013 247.012 240.179 245.117 235.836 241.872C231.492 238.613 230.374 231.785 230.374 231.785C230.374 231.785 205.873 209.858 201.789 204.431C197.719 199.005 192.816 186.529 192.816 185.711C192.816 184.894 190.645 178.935 190.645 178.935L210.477 171.886L210.49 171.873Z" fill="white" stroke="#263238" stroke-miterlimit="10"/>
<path d="M255.264 238.821C255.264 238.821 256.096 243.403 257.137 244.234C258.177 245.065 261.103 243.559 261.311 242.131C261.519 240.703 259.23 237.574 257.761 236.743C256.304 235.913 254.627 236.536 255.264 238.821Z" stroke="#263238" stroke-miterlimit="10"/>
<path d="M255.261 238.821C255.261 238.821 252.843 238.185 251.893 239.249C250.944 240.314 252.843 246.247 253.558 246.727C254.273 247.207 257.121 246.493 257.355 245.896C257.589 245.299 257.199 241.716 255.261 238.821Z" fill="white" stroke="#263238" stroke-miterlimit="10"/>
<path d="M251.064 241.625C251.064 241.625 248.801 238.418 247.969 240.794C247.137 243.17 247.618 247.077 248.086 247.791C248.567 248.505 250.817 248.739 251.181 247.441C251.532 246.13 251.181 243.287 251.064 241.625Z" fill="white" stroke="#263238" stroke-miterlimit="10"/>
<path d="M247.252 242.702C247.252 242.702 245.587 239.859 244.287 241.872C242.974 243.884 243.338 247.454 243.936 248.285C244.534 249.116 246.199 248.882 246.667 247.688C247.148 246.506 247.265 242.702 247.265 242.702H247.252Z" fill="white" stroke="#263238" stroke-miterlimit="10"/>
<path d="M71.8873 166.796L70.3268 183.465C70.3268 183.465 67.1927 190.242 65.8922 197.784C64.5917 205.327 64.5917 244.143 64.5917 251.958C64.5917 259.774 64.0715 270.977 64.8518 275.404C65.6321 279.831 68.5061 285.037 69.2864 286.348C70.0667 287.646 74.5012 288.698 76.0748 288.425C77.6484 288.152 81.5497 284.777 81.5497 284.777C81.5497 284.777 81.2896 282.96 79.469 282.96C77.6484 282.96 76.3349 282.181 75.8147 281.402C75.2945 280.623 77.1152 273.846 77.1152 273.846C77.1152 273.846 78.4156 279.831 79.469 279.052C80.5094 278.273 81.8228 279.312 81.8228 276.183C81.8228 273.054 81.3027 269.666 81.3027 269.666C81.3027 269.666 82.0829 266.278 81.3027 261.591C80.5224 256.905 76.8681 252.997 76.8681 250.128C76.8681 247.259 87.0377 218.348 90.1718 206.898C93.3059 195.435 93.8261 185.283 93.8261 185.283L95.9068 172.002L71.9003 166.796H71.8873Z" fill="white" stroke="#263238" stroke-miterlimit="10"/>
<path d="M137.249 57.8123C137.249 57.8123 140.032 71.716 136.625 79.1418C133.218 86.5545 117.118 95.0577 114.023 97.0699C110.928 99.0821 90.7969 103.249 82.7471 116.387C74.6972 129.525 69.9766 167.303 69.9766 169.484L99.7181 176.741C99.7181 176.741 99.2369 192.02 99.2369 197.265C99.2369 202.51 90.6279 219.698 86.8045 250.738C82.9812 281.765 99.2369 355.763 99.2369 355.763C99.2369 355.763 97.8064 377.248 96.8441 391.087C95.8817 404.926 99.2369 461.267 99.2369 461.267C99.2369 461.267 96.8441 470.809 93.97 473.198C91.096 475.587 81.5377 481.312 81.0565 483.7C80.5753 486.089 82.487 486.569 84.8798 487.517C87.2727 488.478 120.747 487.517 120.747 487.517C120.747 487.517 124.57 485.128 124.089 476.534C123.608 467.94 123.608 463.643 123.608 463.643C123.608 463.643 125.519 456.01 126.482 452.18C127.444 448.363 126.963 441.678 127.444 435.953C127.925 430.227 134.141 354.322 134.141 347.636C134.141 340.95 143.231 264.097 143.231 264.097L148.967 346.208C148.967 346.208 152.309 455.231 153.752 458.58C155.183 461.917 157.094 464.305 157.094 464.305L156.132 469.083L157.094 477.196C157.094 477.196 154.702 487.699 157.094 487.699H186.264C186.264 487.699 191.049 483.402 189.138 479.105C187.226 474.808 184.833 470.511 184.833 470.511L181.491 460.969C181.491 460.969 184.365 455.244 184.365 452.375V438.536C184.365 431.85 190.1 336.186 190.1 336.186C190.1 336.186 195.367 292.748 196.797 261.708C198.228 230.668 190.581 209.196 187.707 202.51C184.833 195.824 183.884 189.138 183.884 189.138L184.846 174.339L189.151 181.505L221.194 171.003L203.495 121.827C203.495 121.827 193.455 107.507 188.188 103.21C182.922 98.9134 169.579 95.8626 165.235 92.8897C161.867 90.5919 159.747 74.8707 159.747 74.8707L137.236 57.7993L137.249 57.8123Z" fill="white" stroke="#263238" stroke-miterlimit="10"/>
<path d="M189.164 181.505L221.207 171.003L203.508 121.827C203.508 121.827 193.468 107.507 188.201 103.21C182.935 98.9134 169.592 95.8626 165.248 92.8897C161.88 90.5919 159.76 74.8707 159.76 74.8707L137.249 57.7993C137.249 57.7993 140.032 71.7031 136.625 79.1288C133.218 86.5415 117.118 95.0447 114.023 97.0569C110.928 99.0692 90.7969 103.236 82.7471 116.374C74.6972 129.512 69.9766 167.29 69.9766 169.471L99.7181 176.728C99.7181 176.728 99.2369 192.007 99.2369 197.252C99.2369 201.523 93.5539 213.674 89.3664 234.757C101.773 238.652 123.061 243.936 145.195 243.144C167.563 242.352 185.952 239.483 196.121 237.561C194.249 219.607 189.762 207.274 187.707 202.497C184.833 195.811 183.884 189.125 183.884 189.125L184.846 174.326L189.151 181.492L189.164 181.505Z" fill="white" stroke="#263238" stroke-miterlimit="10"/>
<path d="M168.863 179.298L146.469 193.747" stroke="#263238" stroke-miterlimit="10"/>
<path d="M177.358 173.833L172.754 176.792" stroke="#263238" stroke-miterlimit="10"/>
<path d="M170.28 184.75L158.043 191.813" stroke="#263238" stroke-miterlimit="10"/>
<path d="M150.332 108.922C150.332 108.922 154.194 121.775 154.194 135.912" stroke="#263238" stroke-miterlimit="10"/>
<path d="M155.588 110.247C155.588 110.974 155.003 111.558 154.274 111.558C153.546 111.558 152.961 110.974 152.961 110.247C152.961 109.52 153.546 108.936 154.274 108.936C155.003 108.936 155.588 109.52 155.588 110.247Z" stroke="#263238" stroke-miterlimit="10"/>
<path d="M157.822 120.269C157.822 120.996 157.237 121.58 156.509 121.58C155.781 121.58 155.195 120.996 155.195 120.269C155.195 119.542 155.781 118.958 156.509 118.958C157.237 118.958 157.822 119.542 157.822 120.269Z" stroke="#263238" stroke-miterlimit="10"/>
<path d="M158.731 131.615C159.457 131.615 160.045 131.028 160.045 130.304C160.045 129.58 159.457 128.993 158.731 128.993C158.006 128.993 157.418 129.58 157.418 130.304C157.418 131.028 158.006 131.615 158.731 131.615Z" stroke="#263238" stroke-miterlimit="10"/>
<path d="M140.228 103.392C151.243 109.299 163.064 104.015 170.268 95.2784C168.188 94.4606 166.406 93.6687 165.262 92.8897C161.894 90.5919 159.774 74.8707 159.774 74.8707L137.263 57.7993C137.263 57.7993 140.046 71.7031 136.639 79.1288C135.104 82.4652 130.995 86.0222 126.664 89.112C128.368 93.2143 132.113 99.0432 140.228 103.392Z" fill="white" stroke="#263238" stroke-miterlimit="10"/>
<path d="M149.125 81.2969C149.125 81.2969 154.704 87.5672 157.032 90.3453C159.36 93.1365 163.079 94.9929 163.079 94.9929L164.015 86.1781L149.138 81.3098L149.125 81.2969Z" fill="#263238" stroke="#263238" stroke-miterlimit="10"/>
<path d="M188.5 130.616C189.111 128.279 189.696 126.202 189.696 126.202" stroke="#263238" stroke-miterlimit="10"/>
<path d="M184.859 174.352C184.859 174.352 189.697 164.304 189.931 157.917C190.165 151.53 187.187 138.301 187.187 136.704C187.187 136.289 187.356 135.406 187.603 134.315" stroke="#263238" stroke-miterlimit="10"/>
<path d="M107.898 135.328L100.355 172.275L102.865 143.312" stroke="#263238" stroke-miterlimit="10"/>
<path d="M184.86 470.524L181.517 460.982C181.517 460.982 171.595 454.439 166.653 456.555C161.711 458.671 160.658 462.903 160.658 462.903L157.134 464.331L156.171 469.109L157.134 477.222C157.134 477.222 154.741 487.725 157.134 487.725H186.303C186.303 487.725 191.089 483.428 189.177 479.131C187.265 474.834 184.873 470.537 184.873 470.537L184.86 470.524Z" fill="white" stroke="#263238" stroke-miterlimit="10"/>
<path d="M124.128 476.534C123.764 470.056 123.673 466.019 123.66 464.422L117.235 464.876C117.235 464.876 114.413 457.827 108.756 456.425C103.112 455.01 99.2629 461.254 99.2629 461.254C99.2629 461.254 96.87 470.796 93.996 473.185C91.122 475.573 81.5636 481.299 81.0825 483.687C80.6013 486.076 82.513 486.556 84.9058 487.504C87.2987 488.465 120.772 487.504 120.772 487.504C120.772 487.504 124.596 485.115 124.115 476.521L124.128 476.534Z" fill="white" stroke="#263238" stroke-miterlimit="10"/>
<path d="M132.336 44.506C132.336 44.506 130.788 29.1613 136.991 19.0872C143.194 9.01317 158.722 6.5336 169.126 9.79209C179.529 13.0506 188.06 22.5015 189.465 29.4728C190.856 36.4442 188.841 46.8298 187.917 49.6209C186.981 52.4121 184.965 53.6453 184.965 56.2807C184.965 58.916 185.433 67.1337 182.325 71.937C179.217 76.7404 173.638 85.8797 170.998 87.5933C168.358 89.307 164.171 88.8266 162.311 88.2165C160.451 87.5933 159.359 86.9832 159.359 86.9832C159.359 86.9832 148.799 81.7125 145.392 77.9996C141.972 74.2868 140.112 69.6262 138.409 65.446C136.705 61.2658 135.301 56.3067 135.301 56.3067L132.349 44.532L132.336 44.506Z" fill="white" stroke="#263238" stroke-miterlimit="10"/>
<path d="M189.453 29.4728C188.062 22.5015 179.518 13.0506 169.114 9.79209C158.71 6.5336 143.196 9.01317 136.979 19.0872C130.776 29.1613 132.324 44.506 132.324 44.506L134.444 52.9573L139.775 49.9195C139.775 49.9195 144.743 47.7515 145.055 44.8046C145.367 41.8577 147.071 41.3903 149.555 39.0665C152.039 36.7428 152.351 23.566 165.85 21.7096C176.657 20.2166 184.277 23.7088 189.674 30.8749C189.609 30.3946 189.531 29.9142 189.44 29.4598L189.453 29.4728Z" fill="#263238" stroke="#263238" stroke-miterlimit="10"/>
<path d="M141.489 61.863C141.489 61.863 139.005 64.3425 136.365 62.9535C133.725 61.5644 130.162 57.8385 129.382 50.5556C128.601 43.2727 132.49 40.3258 136.677 42.8054C140.865 45.2849 141.645 52.4121 141.645 52.4121" fill="white"/>
<path d="M141.489 61.863C141.489 61.863 139.005 64.3425 136.365 62.9535C133.725 61.5644 130.162 57.8385 129.382 50.5556C128.601 43.2727 132.49 40.3258 136.677 42.8054C140.865 45.2849 141.645 52.4121 141.645 52.4121" stroke="#263238" stroke-miterlimit="10"/>
<path d="M181.388 48.1409L177.512 49.5299C177.512 49.5299 175.496 57.2802 175.496 58.9809C175.496 60.6815 178.449 64.8747 177.98 66.4195C177.512 67.9644 172.7 69.3665 171.621 68.7433" stroke="#263238" stroke-miterlimit="10"/>
<path d="M161.047 71.0801C161.047 71.0801 163.375 75.7276 171.451 75.4161" stroke="#263238" stroke-miterlimit="10"/>
<path d="M157.941 54.3464C157.941 54.3464 163.221 56.826 168.501 55.7355" stroke="#263238" stroke-miterlimit="10"/>
<path d="M170.517 45.194C170.517 45.194 163.69 42.7144 158.254 45.3498" stroke="#263238" stroke-miterlimit="10"/>
<path d="M165.236 56.3584L164.455 57.4489C164.455 57.4489 163.675 57.9162 161.035 56.8258" stroke="#263238" stroke-miterlimit="10"/>
<path d="M176.746 56.3975C176.746 56.3975 180.413 58.3577 183.951 57.2543" stroke="#263238" stroke-miterlimit="10"/>
<path d="M181.767 57.8906L181.286 58.8513C181.286 58.8513 180.779 59.2797 178.945 58.4359" stroke="#263238" stroke-miterlimit="10"/>
<path d="M182.625 48.6083C182.625 48.6083 185.421 48.1409 186.045 50.1532" stroke="#263238" stroke-miterlimit="10"/>
<path d="M63.1226 394.565C63.1226 394.565 49.949 388.775 36.3592 390.502C20.4415 392.527 10.2719 401.666 4.51088 415.531C-1.25016 429.396 -1.02908 454.114 13.6531 469.64C20.3765 476.741 28.2443 482.038 35.4098 484.66C41.3659 486.841 47.6732 487.893 54.0064 487.893H150.058C157.068 487.893 163.57 484.206 167.133 478.182C172.4 469.277 178.473 455.165 176.25 439.872C172.517 414.168 155.247 407.067 153.557 406.392C151.866 405.717 63.1096 394.552 63.1096 394.552L63.1226 394.565Z" fill="#9E9E9E" stroke="#263238" stroke-miterlimit="10"/>
<path d="M122.476 144.803C122.476 144.803 127.99 151.126 129.641 157.175C131.293 163.225 132.945 165.704 134.05 167.353C135.155 169.002 141.489 172.858 141.489 176.428C141.489 179.998 137.08 181.932 137.08 181.932C137.08 181.932 137.626 193.759 137.912 197.342C138.185 200.912 138.745 202.573 136.807 204.495C134.869 206.416 130.747 208.623 130.747 208.623C130.747 208.623 117.521 222.657 115.87 224.305C114.218 225.954 76.7387 211.375 76.7387 211.375C76.7387 211.375 77.8441 207.805 78.6634 205.871L79.4957 203.949C79.4957 203.949 67.3754 181.4 64.6185 169.846C61.8615 158.292 80.328 141.233 86.3882 137.391C92.4483 133.535 112.02 134.638 117.248 135.184C122.476 135.729 124.96 136.56 124.96 139.585V142.609L128.263 141.506C128.263 141.506 126.884 145.907 122.476 144.803Z" fill="white" stroke="#263238" stroke-linecap="round" stroke-linejoin="round"/>
<path d="M113.932 144.803C118.34 145.076 122.476 144.803 122.476 144.803C126.885 145.907 128.263 141.506 128.263 141.506L124.96 142.609V139.585C124.96 136.56 122.476 135.729 117.248 135.184C112.007 134.638 92.4483 133.535 86.3882 137.391C80.328 141.246 61.8615 158.292 64.6185 169.846C67.3754 181.4 79.4957 203.949 79.4957 203.949C79.4957 203.949 81.4204 203.949 87.4806 202.028C93.5407 200.107 95.7515 192.123 95.7515 192.123C95.7515 192.123 88.859 189.643 87.2074 186.891C85.5559 184.139 87.4805 175.065 90.7837 173.961C94.0869 172.858 99.0546 176.713 100.433 176.986C101.812 177.258 102.358 176.155 103.463 174.506C104.569 172.858 102.917 170.378 102.917 169.002C102.917 167.626 109.536 160.2 110.902 157.175C112.28 154.15 101.539 148.373 102.085 145.621C102.631 142.869 109.523 144.518 113.932 144.79V144.803Z" fill="#263238" stroke="#263238" stroke-linecap="round" stroke-linejoin="round"/>
<path d="M122.191 208.623C122.191 208.623 114.753 209.168 108.419 205.326C102.086 201.47 101.254 197.9 101.254 197.9" stroke="#263238" stroke-linecap="round" stroke-linejoin="round"/>
<path d="M122.75 186.891C122.75 186.891 125.234 190.189 131.294 189.916" stroke="#263238" stroke-linecap="round" stroke-linejoin="round"/>
<path d="M129.292 166.769C129.825 168.353 129.695 169.82 128.98 170.067C128.265 170.313 127.251 169.223 126.717 167.652C126.184 166.081 126.314 164.601 127.029 164.355C127.745 164.108 128.759 165.198 129.292 166.769Z" fill="#263238"/>
<path d="M122.527 162.628C122.527 162.628 124.478 158.733 128.379 160.097" stroke="#263238" stroke-linecap="round" stroke-linejoin="round"/>
<path d="M234.538 460.111C234.538 460.111 237.451 469.445 245.189 474.949C252.94 480.454 263.98 481.947 265.944 483.634C267.908 485.309 264.54 487.269 264.54 487.269H219.388L219.102 460.955L234.525 460.111H234.538Z" fill="#263238" stroke="#263238" stroke-miterlimit="10"/>
<path d="M221.351 352.036C221.351 352.036 235.929 348.401 238.179 351.192C240.429 353.996 245.475 428.746 247.438 441.897C249.402 455.061 248.843 458.981 248.843 458.981L221.078 466.823C221.078 466.823 214.628 433.783 207.618 420.905C200.609 408.027 186.863 375.832 196.122 364.07C205.382 352.308 221.364 352.036 221.364 352.036H221.351Z" fill="#263238" stroke="#263238" stroke-miterlimit="10"/>
<path d="M130.798 233.393C130.798 233.393 153.14 235.73 158.329 235.21C163.518 234.691 171.841 230.797 185.6 230.537C199.372 230.277 255.213 228.979 260.922 228.979C266.631 228.979 296.646 227.798 296.646 227.798C296.646 227.798 311.965 226.759 310.938 228.836C309.898 230.913 306.777 232.212 303.148 232.991C299.507 233.769 295.359 235.587 295.359 235.587L288.609 237.404C288.609 237.404 293.798 238.703 295.359 238.703C296.919 238.703 303.148 239.741 301.848 241.039C300.547 242.338 300.027 242.857 296.659 242.857C293.291 242.857 288.609 241.818 286.788 241.818C284.968 241.818 282.627 242.857 277.958 243.376C273.277 243.895 262.496 243.519 262.496 243.519L243.535 246.115C243.535 246.115 207.955 255.969 192.362 260.383C176.783 264.796 169.76 265.056 169.76 265.056C169.76 265.056 163.791 265.835 148.459 268.431C133.139 271.028 112.098 269.73 112.098 269.73L130.798 233.432V233.393Z" fill="#263238" stroke="#263238" stroke-linecap="round" stroke-linejoin="round"/>
<path d="M74.5666 207.585C74.5666 207.585 124.439 224.176 131.709 229.369C138.978 234.548 147.028 262.564 148.069 273.715C149.109 284.867 157.939 321.684 158.719 339.833C159.5 357.981 157.159 355.385 157.159 355.385C157.159 355.385 102.605 365.758 91.7066 369.393C80.7958 373.028 62.8754 391.696 62.3553 390.917C61.8351 390.138 61.8351 375.105 63.9158 366.537C65.9966 357.968 67.8172 335.678 67.8172 335.678C67.8172 335.678 56.9063 292.37 56.3861 278.376C55.866 264.368 62.0952 233.769 64.9562 224.695C67.8172 215.621 72.7459 206.806 74.5666 207.585Z" fill="white" stroke="#263238" stroke-linecap="round" stroke-linejoin="round"/>
<path d="M122.504 264.705L152.271 307.897C152.271 307.897 145.21 275.74 145.21 274.507C145.21 273.274 144.898 261.33 144.898 261.33L122.504 264.705Z" fill="#263238" stroke="#263238" stroke-linecap="round" stroke-linejoin="round"/>
<path d="M131.724 229.369C131.724 229.369 154.066 231.705 159.255 231.186C164.444 230.667 172.767 226.772 186.525 226.512C200.297 226.253 256.139 224.955 261.848 224.955C267.557 224.955 296.661 227.811 296.661 227.811C296.661 227.811 311.981 226.772 310.953 228.849C309.913 230.926 306.792 232.225 303.164 233.003C299.522 233.782 295.374 235.6 295.374 235.6L288.625 237.417C288.625 237.417 293.813 238.716 295.374 238.716C296.935 238.716 303.164 239.754 301.863 241.052C300.563 242.351 300.043 242.87 296.674 242.87C293.306 242.87 288.625 241.831 286.804 241.831C284.983 241.831 282.642 242.87 277.974 243.389C273.292 243.908 263.422 239.494 263.422 239.494L244.461 242.091C244.461 242.091 208.88 251.944 193.288 256.358C177.708 260.772 170.686 261.032 170.686 261.032C170.686 261.032 164.717 261.811 149.384 264.407C134.065 267.003 113.023 265.705 113.023 265.705L131.724 229.407V229.369Z" fill="white" stroke="#263238" stroke-linecap="round" stroke-linejoin="round"/>
<path d="M304.451 231.186C304.451 231.186 297.962 231.965 296.402 232.484C294.841 233.004 289.912 234.561 286.531 235.081C283.15 235.6 279.261 236.119 279.261 236.119C279.261 236.119 274.58 238.975 269.651 238.196C264.722 237.417 263.422 235.86 263.422 235.86" stroke="#263238" stroke-miterlimit="10"/>
<path d="M80.0312 228.849C80.0312 228.849 98.2247 225.11 107.042 224.695C115.859 224.292 135.873 230.913 135.873 230.913L108.862 273.442C108.862 273.442 87.3008 272.404 86.2604 272.404" fill="white"/>
<path d="M80.0312 228.849C80.0312 228.849 98.2247 225.11 107.042 224.695C115.859 224.292 135.873 230.913 135.873 230.913L108.862 273.442C108.862 273.442 87.3008 272.404 86.2604 272.404" stroke="#263238" stroke-linecap="round" stroke-linejoin="round"/>
<path d="M106.519 276.039C106.519 276.039 100.29 304.82 83.1367 320.905" stroke="#263238" stroke-miterlimit="10"/>
<path d="M113.543 270.859C113.543 270.859 111.462 288.749 103.152 308.196" stroke="#263238" stroke-miterlimit="10"/>
<path d="M78.3633 367.173C78.3633 367.173 99.0276 360.072 114.945 358.722" stroke="#263238" stroke-miterlimit="10"/>
<path d="M111.902 355.346C111.902 355.346 124.777 354.334 133.581 356.359" stroke="#263238" stroke-miterlimit="10"/>
<path d="M102.111 310.792C102.111 310.792 100.55 314.946 99.25 317.789" stroke="#263238" stroke-miterlimit="10"/>
<path d="M122.895 271.898C122.895 271.898 125.495 286.684 126.016 296.019" stroke="#263238" stroke-miterlimit="10"/>
<path d="M208.371 464.226C208.371 464.226 208.371 486.283 209.502 487.23C210.634 488.178 215.55 487.983 216.109 487.983H258.595C258.595 487.983 261.989 487.412 262.184 485.153C262.379 482.894 253.692 480.441 252.925 480.441C252.158 480.441 228.19 467.433 227.436 466.303C226.682 465.174 224.796 460.085 224.796 460.085L208.371 464.226Z" fill="white" stroke="#263238" stroke-miterlimit="10"/>
<path d="M154.922 417.907C154.922 417.907 182.375 411.961 194.43 402.718L188.825 391.514L154.922 417.907Z" fill="#263238" stroke="#263238" stroke-linecap="round" stroke-linejoin="round"/>
<path d="M62.3685 390.917C62.3685 390.917 62.7846 402.341 69.8981 408.43C77.0117 414.518 99.0285 418.231 108.522 417.893C118.002 417.556 154.935 417.893 154.935 417.893C154.935 417.893 163.739 414.856 169.5 411.805C175.261 408.767 187.798 399.965 187.798 399.965C187.798 399.965 190.503 416.193 191.868 421.944C193.221 427.695 202.025 453.737 202.025 453.737L204.392 467.264L241.988 459.15C241.988 459.15 238.607 434.121 236.227 416.543C233.86 398.953 226.747 361.084 224.705 354.658C222.676 348.232 223.014 348.232 217.253 348.232C211.492 348.232 191.166 349.92 170.84 352.633C150.514 355.333 126.468 358.721 108.509 363.122C90.5495 367.523 102.41 364.135 87.8445 370.223C73.2793 376.312 62.3555 390.917 62.3555 390.917H62.3685Z" fill="white" stroke="#263238" stroke-miterlimit="10"/>
<path d="M187.785 399.978C187.785 399.978 189.814 391.189 192.87 386.789C195.913 382.388 201.674 377.325 201.674 377.325" stroke="#263238" stroke-miterlimit="10"/>
<path d="M199.645 374.949C199.645 374.949 190.841 380.7 188.461 386.788" stroke="#263238" stroke-miterlimit="10"/>
<path d="M226.745 384.426C226.745 384.426 219.969 408.43 215.223 417.569" stroke="#263238" stroke-miterlimit="10"/>
<path d="M226.407 398.291C226.407 398.291 221.322 440.222 215.223 452.062" stroke="#263238" stroke-miterlimit="10"/>
<path d="M87.168 393.215C87.168 393.215 98.0138 374.611 111.213 366.16" stroke="#263238" stroke-miterlimit="10"/>
<path d="M101.055 368.523C101.055 368.523 94.6173 374.949 91.5742 380.363" stroke="#263238" stroke-miterlimit="10"/>
</svg>
